<?xml version="1.0" standalone="no"?>
<!DOCTYPE svg PUBLIC "-//W3C//DTD SVG 20010904//EN"
 "http://www.w3.org/TR/2001/REC-SVG-20010904/DTD/svg10.dtd">
<svg version="1.0" xmlns="http://www.w3.org/2000/svg"
 width="700.000000pt" height="700.000000pt" viewBox="0 0 700.000000 700.000000"
 preserveAspectRatio="xMidYMid meet">
<metadata>
Created by potrace 1.11, written by Peter Selinger 2001-2013
</metadata>
<g transform="translate(0.000000,700.000000) scale(0.100000,-0.100000)"
fill="#000000" stroke="none">
<path d="M550 6993 c-132 -23 -253 -86 -351 -183 -80 -79 -131 -159 -171 -270
l-23 -65 -2 -2945 c-2 -2680 -1 -2951 13 -3015 45 -191 170 -355 339 -440 67
-34 97 -44 190 -65 23 -5 1285 -8 2985 -7 l2945 2 73 27 c112 42 180 85 262
168 57 57 85 95 116 160 80 165 74 -125 71 3165 -3 3280 5 2963 -73 3122 -53
108 -169 225 -274 276 -41 20 -98 44 -125 54 -47 17 -209 18 -3000 19 -1622 1
-2961 -1 -2975 -3z"/>
</g>
</svg>
