<svg viewBox="0 0 18 18" xmlns="http://www.w3.org/2000/svg"><path d="M13.096 13.559a.503.503 0 0 1-.707 0 .493.493 0 0 1 0-.702A5.414 5.414 0 0 0 13.998 9a5.414 5.414 0 0 0-1.609-3.856.493.493 0 0 1 0-.701.503.503 0 0 1 .708 0A6.401 6.401 0 0 1 15 9a6.401 6.401 0 0 1-1.904 4.559zm2.123 2.102a.503.503 0 0 1-.707 0 .493.493 0 0 1 0-.7A8.367 8.367 0 0 0 17 9a8.367 8.367 0 0 0-2.488-5.96c-.195-.193-.195-.507 0-.7s.513-.194.708 0A9.355 9.355 0 0 1 18 9a9.355 9.355 0 0 1-2.78 6.661zM1 11.976c-.552 0-1-.444-1-.992V7.016a.996.996 0 0 1 1-.992h2l5.42-3.84a1.005 1.005 0 0 1 1.395.231c.122.169.187.37.187.577v12.016a.996.996 0 0 1-1 .992c-.209 0-.412-.065-.582-.185L3 11.975zm0-.992h2.321l5.68 4.024V2.992l-5.68 4.024h-2.32z" fill="currentColor" fill-rule="evenodd"/></svg>
