<svg id="i-calendar" viewBox="0 0 18 18" xmlns="http://www.w3.org/2000/svg"><path d="M12.5 0c.276 0 .5.215.5.49V1h2c1.107 0 2 .895 2 2v12c0 1.107-.895 2-2 2H3c-1.107 0-2-.895-2-2V3c0-1.107.895-2 2-2h1v1H3c-.554 0-1 .446-1 1v3h14V3c0-.554-.446-1-1-1h-2v1.51a.5.5 0 0 1-.5.49.492.492 0 0 1-.5-.49V.49a.5.5 0 0 1 .5-.49zM16 7H2v8c0 .554.446 1 1 1h12c.554 0 1-.446 1-1zM5 13v1H4v-1zm3 0v1H7v-1zm3 0v1h-1v-1zm-6-2v1H4v-1zm3 0v1H7v-1zm6 0v1h-1v-1zm-3 0v1h-1v-1zM8 9v1H7V9zm6 0v1h-1V9zm-3 0v1h-1V9zM5.5 0c.276 0 .5.215.5.49V1h5v1H6v1.51a.5.5 0 0 1-.5.49.492.492 0 0 1-.5-.49V.49A.5.5 0 0 1 5.5 0z" fill="currentColor" fill-rule="evenodd"/></svg>
