<svg id="i-cart" viewBox="0 0 18 18" xmlns="http://www.w3.org/2000/svg"><path d="M5 14a2 2 0 1 1 0 4 2 2 0 0 1 0-4zm10 0a2 2 0 1 1 0 4 2 2 0 0 1 0-4zM5 15a1 1 0 1 0 0 2 1 1 0 0 0 0-2zm10 0a1 1 0 1 0 0 2 1 1 0 0 0 0-2zM2.18 0a1 1 0 0 1 .98.804L3.4 2H16.76a1 1 0 0 1 .978 1.21l-1.29 5.986c-.102.468-.544.804-1.058.804H5.143c-.592 0-1.072.448-1.072 1 0 .513.414.936.947.993l.125.007h10.36a.498.498 0 0 1 0 .996L5.142 13C3.959 13 3 12.105 3 11c0-.663.345-1.25.877-1.614l-1.638-8.19a1.005 1.005 0 0 1-.02-.195L.5 1a.5.5 0 1 1 0-1zm14.532 3H3.599l1.205 6.025A2.31 2.31 0 0 1 5.143 9h10.27z" fill="currentColor"/></svg>
