<svg id="i-citation" viewBox="0 0 18 18" xmlns="http://www.w3.org/2000/svg"><path d="M8.636 6a4 4 0 0 1 2.174 7.358 6.227 6.227 0 0 1 3.462 3.641h-1.077a5.218 5.218 0 0 0-2.769-2.718l-.79-.33v-1.023l.63-.41a3 3 0 1 0-3.26 0l.63.41v1.024l-.79.329a5.218 5.218 0 0 0-2.77 2.718H3a6.227 6.227 0 0 1 3.461-3.641A4 4 0 0 1 8.636 6zm7.369-5C17.107 1 18 1.894 18 3.003v5.994A1.999 1.999 0 0 1 16.005 11L13 10.999v-1h3.005c.549 0 .995-.447.995-1.002V3.003A.997.997 0 0 0 16.005 2H1.995A.999.999 0 0 0 1 3.003V9c0 .667.333 1 1 1l2-.001v1H2c-1 0-2-1-2-2V3.004C0 1.897.893 1 1.995 1zM7.5 4a.5.5 0 1 1 0 1h-4a.5.5 0 0 1 0-1zm3 0a.5.5 0 1 1 0 1h-1a.5.5 0 0 1 0-1zm4 0a.5.5 0 1 1 0 1h-2a.5.5 0 0 1 0-1z" fill="currentColor" fill-rule="evenodd"/></svg>
