<svg id="i-collections" viewBox="0 0 18 18" xmlns="http://www.w3.org/2000/svg"><path d="M15 4a2 2 0 0 1 2 2v9a2 2 0 0 1-2 2H7a2 2 0 0 1-2-2h1a1 1 0 0 0 .883.993L7 16h8a1 1 0 0 0 .993-.883L16 15V6a1 1 0 0 0-.883-.993L15 5h-1V4zm-4-3a2 2 0 0 1 2 2v9a2 2 0 0 1-2 2H3a2 2 0 0 1-2-2V3a2 2 0 0 1 2-2zm0 1H3a1 1 0 0 0-.993.883L2 3v9a1 1 0 0 0 .883.993L3 13h8a1 1 0 0 0 .993-.883L12 12V3a1 1 0 0 0-.883-.993zM9.5 9a.5.5 0 0 1 0 1h-5a.5.5 0 0 1 0-1zm0-2a.5.5 0 0 1 0 1h-5a.5.5 0 0 1 0-1zm0-2a.5.5 0 0 1 0 1h-5a.5.5 0 0 1 0-1z" fill="currentColor" fill-rule="evenodd"/></svg>
