<svg id="i-compare" viewBox="0 0 18 18" xmlns="http://www.w3.org/2000/svg"><path d="M12 3a6 6 0 1 1-3 11.197A6 6 0 1 1 9 3.803a5.961 5.961 0 0 1 3-.803zM6 4a5 5 0 1 0 2.085 9.546C6.808 12.446 6 10.817 6 9s.808-3.446 2.084-4.546A4.983 4.983 0 0 0 6 4zm6 0c-.744 0-1.45.162-2.085.454C11.192 5.554 12 7.183 12 9s-.808 3.446-2.084 4.546A5 5 0 1 0 12 4zm-1.416 7H7.416c.156.358.353.693.585 1.001h1.998c.232-.308.429-.643.585-1zM11 9H7c0 .343.035.678.1 1.001h3.8c.065-.323.1-.658.1-1.001zm-.416-2H7.416A4.962 4.962 0 0 0 7.1 8h3.8a4.962 4.962 0 0 0-.316-1zM9.001 5l-.083.063A5.03 5.03 0 0 0 8 6h2a5.03 5.03 0 0 0-.999-1z" fill="currentColor" fill-rule="evenodd"/></svg>
