<svg id="i-download-file" viewBox="0 0 18 18" xmlns="http://www.w3.org/2000/svg"><path d="M10.005 0c.55 0 1.318.323 1.707.712l4.576 4.576c.393.393.712 1.168.712 1.714v8.99C17 17.1 16.105 18 15.006 18H2.994A1.994 1.994 0 0 1 1 16.005V1.995C1 .893 1.887 0 3 0zm0 1H3c-.557 0-1 .443-1 .995v14.01c0 .55.445.995.994.995h12.012c.546 0 .994-.45.994-1.009V7.002c0-.283-.215-.803-.419-1.007L11.005 1.42c-.204-.204-.719-.419-1-.419zM8.5 5c.276 0 .5.216.5.492v6.148l1.746-1.78a.497.497 0 0 1 .7-.006.498.498 0 0 1-.002.702l-2.591 2.591a.5.5 0 0 1-.706 0l-2.59-2.59a.502.502 0 0 1-.004-.704.49.49 0 0 1 .7.007L8 11.64V5.492C8 5.22 8.232 5 8.5 5z" fill="currentColor" fill-rule="evenodd"/></svg>
