<svg id="i-editors" viewBox="0 0 18 18" xmlns="http://www.w3.org/2000/svg"><path d="M8.726 2.546A3 3 0 1 0 5.37 7.519l.63.409v1.024l-.79.329A5.221 5.221 0 0 0 2 14.099V15H1v-.901a6.221 6.221 0 0 1 3.825-5.741 4 4 0 1 1 4.976-6.213 4.965 4.965 0 0 0-1.075.4zM6 17H5v-.901a6.221 6.221 0 0 1 3.825-5.741 4 4 0 1 1 4.349 0A6.221 6.221 0 0 1 17 16.099V17h-1v-.901a5.221 5.221 0 0 0-3.21-4.818l-.79-.33V9.929l.63-.409a3 3 0 1 0-3.26 0l.63.409v1.024l-.79.329A5.221 5.221 0 0 0 6 16.099z" fill="currentColor" fill-rule="evenodd"/></svg>
