<svg id="i-ethics" viewBox="0 0 18 18" xmlns="http://www.w3.org/2000/svg"><path d="m6.764 1.414.833-.833a1.984 1.984 0 0 1 2.806 0l.833.833A2 2 0 0 0 12.65 2H14a2 2 0 0 1 2 2v1.35a2 2 0 0 0 .586 1.414l.833.833a1.984 1.984 0 0 1 0 2.806l-.833.833A2 2 0 0 0 16 12.65V14a2 2 0 0 1-2 2h-1.35a2 2 0 0 0-1.414.586l-.833.833a1.984 1.984 0 0 1-2.806 0l-.833-.833A2 2 0 0 0 5.35 16H4a2 2 0 0 1-2-2v-1.35a2 2 0 0 0-.586-1.414l-.833-.833a1.984 1.984 0 0 1 0-2.806l.833-.833A2 2 0 0 0 2 5.35V4a2 2 0 0 1 2-2h1.35a2 2 0 0 0 1.414-.586zM5.35 3H4a1 1 0 0 0-1 1v1.35a3 3 0 0 1-.879 2.121l-.833.833a.984.984 0 0 0 0 1.392l.833.833A3 3 0 0 1 3 12.65V14a1 1 0 0 0 1 1h1.35a3 3 0 0 1 2.121.879l.833.833a.984.984 0 0 0 1.392 0l.833-.833A3 3 0 0 1 12.65 15H14a1 1 0 0 0 1-1v-1.35a3 3 0 0 1 .879-2.121l.833-.833a.984.984 0 0 0 0-1.392l-.833-.833A3 3 0 0 1 15 5.35V4a1 1 0 0 0-1-1h-1.35a3 3 0 0 1-2.121-.879l-.833-.833a.984.984 0 0 0-1.392 0l-.833.833A3 3 0 0 1 5.35 3zm3.587 11.496a.505.505 0 0 1-.064.003 5.474 5.474 0 0 1-2.759-.816.5.5 0 0 1 .526-.85 4.474 4.474 0 0 0 2.256.666c.017 0 .035.002.052.004A.506.506 0 0 1 9 13.5a4.5 4.5 0 0 0 3.493-7.338.5.5 0 1 1 .775-.631A5.5 5.5 0 0 1 9 14.5a.505.505 0 0 1-.063-.004zm1.58-10.784a.5.5 0 0 1-.276.961 4.485 4.485 0 0 0-1.156-.172C6.527 4.5 4.5 6.503 4.5 9c0 .627.128 1.235.373 1.796a.5.5 0 1 1-.917.4A5.483 5.483 0 0 1 3.5 9c0-3.052 2.477-5.5 5.594-5.5.486.009.963.08 1.422.212zm-1.977 6.41 2.698-2.946a.5.5 0 0 1 .762.648l-3.016 3.343a.5.5 0 0 1-.693.047L6.36 9.592A.5.5 0 1 1 7 8.824z" fill="currentColor" fill-rule="evenodd"/></svg>
