<svg id="i-explore" viewBox="0 0 18 18" xmlns="http://www.w3.org/2000/svg"><path d="M9 17A8 8 0 1 0 9 1a8 8 0 0 0 0 16zm0 1A9 9 0 1 1 9 0a9 9 0 0 1 0 18zm0-2.5a.5.5 0 1 1 0-1 5.5 5.5 0 0 0 5.497-5.317.5.5 0 1 1 1 .032A6.5 6.5 0 0 1 9 15.5zM8.71 2.506a.5.5 0 1 1 .043 1A5.5 5.5 0 0 0 3.5 9a.5.5 0 0 1-1 0 6.5 6.5 0 0 1 6.21-6.494zm1.137 8.048-1.2-1.2a.5.5 0 1 1 .707-.708l1.2 1.2 1.6-4-4.506 1.802-1.803 4.507zM13.95 4.05l-2.67 6.673a1 1 0 0 1-.557.557L4.05 13.95l2.67-6.673a1 1 0 0 1 .557-.557z" fill="currentColor" fill-rule="evenodd"/></svg>
