<svg height="18" width="18" xmlns="http://www.w3.org/2000/svg"><path d="M1.995 2h14.01A2 2 0 0118 4.006v9.988A2 2 0 0116.005 16H1.995A2 2 0 010 13.994V4.006A2 2 0 011.995 2zM1 13.994A1 1 0 001.995 15h14.01A1 1 0 0017 13.994V4.006A1 1 0 0016.005 3H1.995A1 1 0 001 4.006zm6.696-1.247c-.937.557-1.696.165-1.696-.894v-5.71c0-1.05.767-1.446 1.696-.894L12.3 7.99c.937.558.93 1.465 0 2.018zm-.51-.877l4.585-2.675c.305-.178.305-.216 0-.394L7.187 6.126c-.267-.156-.166-.207-.166.084v5.575c0 .3-.108.245.166.085z" fill="#333" fill-rule="evenodd"/></svg>