<svg height="18" width="18" xmlns="http://www.w3.org/2000/svg"><path d="M12.5 8H6a3 3 0 00-3 3v1a3 3 0 003 3h1v-2h-.5a1.5 1.5 0 010-3H13a3 3 0 003-3V6a3 3 0 00-3-3h-2v2h1.5a1.5 1.5 0 010 3zM7 7V6H3.5a2.5 2.5 0 010-5h1.028a3 3 0 011.342.317l1.133.567A2 2 0 0111 2h2a4 4 0 014 4v1a4 4 0 01-4 4h-2v1h2a2 2 0 110 4h-2a2 2 0 11-4 0H6a4 4 0 01-4-4v-1a4 4 0 014-4zm0-2V2.943a2 2 0 01-.422-.154L5.422 2.21A2 2 0 004.528 2H3.5a1.5 1.5 0 000 3zm4 1v1h1.5a.5.5 0 100-1zm-1 1V2a1 1 0 10-2 0v5zm-2 4v5a1 1 0 002 0v-5zm3 2v2h2a1 1 0 000-2zm-4-1v-1h-.5a.5.5 0 100 1zM3.5 3h1a.5.5 0 010 1h-1a.5.5 0 010-1z" fill="#333" fill-rule="evenodd"/></svg>