<svg height="18" width="18" xmlns="http://www.w3.org/2000/svg"><path d="M9 17A8 8 0 119 1a8 8 0 010 16zM5.982 3.908a.832.832 0 00-.6-.241.786.786 0 00-.577.253.805.805 0 00-.25.58c0 .224.084.42.25.59a.818.818 0 001.177.004.81.81 0 00.25-.593.793.793 0 00-.25-.593zM4.68 6.273v7.171H6.1v-7.17zm5.978.025H7.665v7.146h2.91c.768 0 1.448-.148 2.042-.445s1.051-.715 1.373-1.255c.323-.54.484-1.16.484-1.86 0-.685-.16-1.303-.481-1.852a3.301 3.301 0 00-1.35-1.278c-.58-.304-1.242-.456-1.985-.456zm-.144 6.067H9.046V7.378h1.422c.788 0 1.415.223 1.88.67.466.447.698 1.055.698 1.826 0 .743-.23 1.344-.693 1.803-.462.459-1.075.688-1.839.688z" fill="#333" fill-rule="evenodd"/></svg>