<svg height="18" width="18" xmlns="http://www.w3.org/2000/svg"><path d="M7 17v-2h4v2h2v-3H5v3zM4 7H2.474a.5.5 0 01-.339-.868L3.367 5H1v12h3v-2H1v-1h3v-1h1V9H4zm10 0v2h-1v4h1v1h3v1h-3v2h3V5h-2.37l1.232 1.132a.5.5 0 01-.338.868zm3-3a1 1 0 011 1v13H0V5a1 1 0 011-1h3.455L8.66.135a.5.5 0 01.677 0L13.542 4zm-4 3H5v1h8zm-2 6h1V9h-1zm-1 0V9H8v4zm-3 0V9H6v4zm8-4a1 1 0 011 1v2h-2v-2a1 1 0 011-1zM3 9a1 1 0 011 1v2H2v-2a1 1 0 011-1zm5.999-7.818L3.757 6H14.24zM9 5a1 1 0 110-2 1 1 0 010 2zM8 16v1h2v-1z" fill="#333" fill-rule="evenodd"/></svg>