<svg height="18" width="18" xmlns="http://www.w3.org/2000/svg"><path d="M13.094 13.596a.5.5 0 01-.708-.707A5.48 5.48 0 0013.997 9a5.48 5.48 0 00-1.609-3.887.5.5 0 11.708-.707A6.48 6.48 0 0114.997 9a6.48 6.48 0 01-1.903 4.596zm2.123 2.12a.5.5 0 11-.708-.707A8.47 8.47 0 0016.997 9a8.47 8.47 0 00-2.487-6.008.5.5 0 01.707-.707A9.47 9.47 0 0117.997 9a9.47 9.47 0 01-2.78 6.715zM1 12a1 1 0 01-1-1V7a1 1 0 011-1h2l5.419-3.87A1 1 0 0110 2.942v12.114a1 1 0 01-1.581.814L3 12zm0-1h2.32L9 15.057V2.943L3.32 7H1z" fill="#333" fill-rule="evenodd"/></svg>