<svg height="18" width="18" xmlns="http://www.w3.org/2000/svg"><path d="M7.141 11.397V6.204l4.863 2.606zm9.963-7.927c-.684-.737-1.451-.74-1.803-.783C12.782 2.5 9.004 2.5 9.004 2.5c-.008 0-3.786 0-6.305.187-.352.043-1.119.046-1.804.783C.355 4.03.18 5.304.18 5.304S0 6.8 0 8.296v1.402c0 1.496.18 2.991.18 2.991s.175 1.274.715 1.835c.685.736 1.584.713 1.985.79C4.32 15.456 9 15.5 9 15.5s3.782-.006 6.301-.193c.352-.043 1.119-.047 1.803-.783.54-.561.716-1.835.716-1.835s.18-1.495.18-2.991V8.296c0-1.496-.18-2.992-.18-2.992s-.176-1.273-.716-1.834z" fill="#333" fill-rule="evenodd"/></svg>