<svg height="18" width="18" xmlns="http://www.w3.org/2000/svg"><path d="M3 12h-.994A2.009 2.009 0 010 9.991V2.01C0 .899.897 0 2.006 0h9.988C13.102 0 14 .902 14 2.009V9.99c0 1.11-.897 2.009-2.006 2.009H7l-2.586 2.586C4 15 3 15 3 14.002zm8.994-1C12.55 11 13 10.55 13 9.991V2.01C13 1.453 12.548 1 11.994 1H2.006C1.45 1 1 1.45 1 2.009V9.99C1 10.547 1.452 11 2.006 11H4v2.585L6.587 11zm4-8C17.103 3 18 3.9 18 5.009v7.982A2.009 2.009 0 0115.994 15H15v2.002c0 1.104-1 .998-1.414.584L11 15H6.006L7 14h4.414L14 16.585 14 14h1.994c.554 0 1.006-.453 1.006-1.009V5.01C17 4.45 16.55 4 15.994 4H15V3zM4 7a1 1 0 100-2 1 1 0 000 2zm3 0a1 1 0 100-2 1 1 0 000 2zm3 0a1 1 0 100-2 1 1 0 000 2z" fill="#333" fill-rule="evenodd"/></svg>