<svg id="i-image" viewBox="0 0 18 18" xmlns="http://www.w3.org/2000/svg"><path d="M10.005 0c.55 0 1.318.323 1.707.712l4.576 4.576c.393.393.712 1.168.712 1.714v8.99C17 17.1 16.105 18 15.006 18H2.994A1.994 1.994 0 0 1 1 16.005V1.995C1 .893 1.887 0 3 0zM6.508 10.175l-3.894 6.75a.991.991 0 0 0 .38.075h10.603l-2.433-4.215-1.575 2.728zM15.006 17c.546 0 .994-.45.994-1.009V7.002c0-.283-.215-.803-.419-1.007L11.005 1.42c-.204-.204-.719-.419-1-.419H3c-.557 0-1 .443-1 .995v13.99l4.508-7.81 3.081 5.338 1.575-2.729L14.752 17zM12 6a2 2 0 1 1 0 4 2 2 0 0 1 0-4zm0 1a1 1 0 1 0 0 2 1 1 0 0 0 0-2z" fill="currentColor" fill-rule="evenodd"/></svg>
