<svg id="i-institution" viewBox="0 0 18 18" xmlns="http://www.w3.org/2000/svg"><path d="M7 17v-2h4v2h2v-3H5v3zM4 6.998H2.474a.5.5 0 0 1-.339-.868l1.232-1.132H1V17h3v-2H1v-1h3v-1h1V8.997H4zm10 0v2h-1V13h1v1h3v1h-3v2h3V4.999h-2.37l1.232 1.132a.5.5 0 0 1-.338.868zm3-3a1 1 0 0 1 1 1V18H0V4.998a1 1 0 0 1 1-1h3.455L8.66.131a.5.5 0 0 1 .677 0l4.205 3.865zm-4 3H5v1h8zm-2 6.001h1V9h-1zm-1 0V9H8v4zm-3 0V9H6v4zm8-4a1 1 0 0 1 1 1v2h-2v-2a1 1 0 0 1 1-1zm-12 0a1 1 0 0 1 1 1v2H2v-2a1 1 0 0 1 1-1zm5.999-7.82L3.757 5.998H14.24zM9 4.998a1 1 0 1 1 0-2 1 1 0 0 1 0 2zM8 16v1h2v-1z" fill="currentColor" fill-rule="evenodd"/></svg>
