<svg id="i-orchid" viewBox="0 0 18 18" xmlns="http://www.w3.org/2000/svg"><path d="M9 1a8 8 0 1 1 0 16A8 8 0 0 1 9 1zM6.099 6.273H4.68v7.171H6.1zm4.559.025H7.665v7.146h2.91c.768 0 1.448-.148 2.042-.445s1.051-.715 1.373-1.255c.323-.54.484-1.16.484-1.86 0-.685-.16-1.303-.481-1.852a3.301 3.301 0 0 0-1.35-1.278c-.58-.304-1.242-.456-1.985-.456zm-.19 1.08c.788 0 1.415.223 1.88.67.466.447.698 1.055.698 1.826 0 .743-.23 1.344-.693 1.803-.462.459-1.075.688-1.839.688H9.046V7.378zM5.382 3.667a.786.786 0 0 0-.577.253.805.805 0 0 0-.25.58c0 .224.084.42.25.59a.818.818 0 0 0 1.177.004.81.81 0 0 0 .25-.593c0-.234-.084-.432-.25-.593s-.366-.241-.6-.241z" fill="currentColor" fill-rule="evenodd"/></svg>
