<svg id="i-print" viewBox="0 0 18 18" xmlns="http://www.w3.org/2000/svg"><path d="M16.005 5H1.995A.997.997 0 0 0 1 6v6c0 .557.443 1 .995 1H3v-3h12v3h1.005c.55 0 .995-.447.995-1V6c0-.557-.443-1-.995-1zM14 4V1.998C14 1.45 13.548 1 12.991 1H5.01C4.452 1 4 1.45 4 1.998V4zm1 10v2.002A2.005 2.005 0 0 1 12.991 18H5.01A1.998 1.998 0 0 1 3 16.002V14H1.995A1.992 1.992 0 0 1 0 12V6c0-1.105.893-2 1.995-2H3V1.998C3 .894 3.902 0 5.009 0h7.982C14.101 0 15 .898 15 1.998V4h1.005C17.107 4 18 4.887 18 6v6c0 1.105-.893 2-1.995 2zm-1-3H4v5.002c0 .555.447.998 1.009.998h7.982c.557 0 1.009-.45 1.009-.998zm-9 1h8v1H5zm0 2h5v1H5zm9-5a1 1 0 1 1 0-2 1 1 0 0 1 0 2z" fill="currentColor" fill-rule="evenodd"/></svg>
