<svg id="i-social-youtube" viewBox="0 0 24 24" xmlns="http://www.w3.org/2000/svg"><path d="m10.142 14.397-.001-5.193 4.863 2.606zm9.963-7.927c-.685-.737-1.452-.74-1.804-.783-2.519-.187-6.297-.187-6.297-.187-.008 0-3.786 0-6.305.187-.352.043-1.119.046-1.804.783-.54.56-.715 1.834-.715 1.834S3 9.8 3 11.296v1.402c0 1.496.18 2.991.18 2.991s.176 1.274.715 1.835c.685.736 1.585.713 1.985.79 1.44.142 6.12.186 6.12.186s3.782-.006 6.301-.193c.352-.043 1.119-.047 1.804-.783.539-.561.715-1.835.715-1.835s.18-1.495.18-2.991v-1.402c0-1.496-.18-2.992-.18-2.992s-.176-1.273-.716-1.834z" fill="currentColor" fill-rule="evenodd"/></svg>
