<svg id="i-social-twitter" viewBox="0 0 24 24" xmlns="http://www.w3.org/2000/svg"><path d="M18.877 6.874a3.772 3.772 0 0 0 1.625-2.096 7.237 7.237 0 0 1-2.347.917A3.64 3.64 0 0 0 15.463 4.5c-2.04 0-3.693 1.696-3.693 3.786 0 .297.031.587.094.862C8.8 8.99 6.076 7.483 4.254 5.191c-.317.56-.5 1.211-.5 1.905 0 1.314.653 2.472 1.643 3.152a3.647 3.647 0 0 1-1.672-.473v.045c0 1.834 1.273 3.366 2.964 3.713a3.543 3.543 0 0 1-.975.133c-.236 0-.471-.023-.694-.067.471 1.507 1.832 2.604 3.45 2.633a7.297 7.297 0 0 1-4.59 1.62c-.298 0-.59-.016-.88-.051A10.279 10.279 0 0 0 8.661 19.5c6.793 0 10.506-5.771 10.506-10.775l-.009-.49A7.527 7.527 0 0 0 21 6.275a7.267 7.267 0 0 1-2.122.596z" fill="currentColor" fill-rule="evenodd"/></svg>
