<svg id="i-subject-medicine" viewBox="0 0 18 18" xmlns="http://www.w3.org/2000/svg"><path d="M12.5 8H6a3 3 0 0 0-3 3v1a3 3 0 0 0 3 3h1v-2h-.5a1.5 1.5 0 0 1 0-3H13a3 3 0 0 0 3-3V6a3 3 0 0 0-3-3h-2v2h1.5a1.5 1.5 0 0 1 0 3zM7 7V6H3.5a2.5 2.5 0 0 1 0-5h1.028a3 3 0 0 1 1.342.317l1.133.567A2 2 0 0 1 11 2h2a4 4 0 0 1 4 4v1a4 4 0 0 1-4 4h-2v1h2a2 2 0 1 1 0 4h-2a2 2 0 1 1-4 0H6a4 4 0 0 1-4-4v-1a4 4 0 0 1 4-4zm0-2V2.943a2 2 0 0 1-.422-.154L5.422 2.21A2 2 0 0 0 4.528 2H3.5a1.5 1.5 0 0 0 0 3zm4 1v1h1.5a.5.5 0 1 0 0-1zm-1 1V2a1 1 0 1 0-2 0v5zm-2 4v5a1 1 0 0 0 2 0v-5zm3 2v2h2a1 1 0 0 0 0-2zm-4-1v-1h-.5a.5.5 0 1 0 0 1zM3.5 3h1a.5.5 0 0 1 0 1h-1a.5.5 0 0 1 0-1z" fill="currentColor" fill-rule="evenodd"/></svg>
