<svg id="i-table" viewBox="0 0 18 18" xmlns="http://www.w3.org/2000/svg"><path d="M16.005 2A2 2 0 0 1 18 4.006v9.988A2 2 0 0 1 16.005 16l-4.006-.001L12 16h-1l-.001-.001h-5L6 16H5l-.001-.001L1.995 16A2 2 0 0 1 0 13.994V4.006A2 2 0 0 1 1.995 2zM4.999 7H1v6.994A1 1 0 0 0 1.995 15H5zm6 0h-5v8h5zm5.006-4h-4.006v3H17v1h-5.001v7.999l4.006.001A1 1 0 0 0 17 13.994V4.006A1 1 0 0 0 16.005 3zM3.5 12a.5.5 0 1 1 0 1h-1a.5.5 0 1 1 0-1zm12 0a.5.5 0 1 1 0 1h-2a.5.5 0 1 1 0-1zm-6 0a.5.5 0 1 1 0 1h-2a.5.5 0 1 1 0-1zm-6-2a.5.5 0 1 1 0 1h-1a.5.5 0 1 1 0-1zm12 0a.5.5 0 1 1 0 1h-2a.5.5 0 1 1 0-1zm-6 0a.5.5 0 1 1 0 1h-2a.5.5 0 1 1 0-1zm-6-2a.5.5 0 0 1 0 1h-1a.5.5 0 0 1 0-1zm12 0a.5.5 0 1 1 0 1h-2a.5.5 0 1 1 0-1zm-6 0a.5.5 0 0 1 0 1h-2a.5.5 0 0 1 0-1zm1.499-5h-5v3h5zm-6 0H1.995A1 1 0 0 0 1 4.006V6h3.999z" fill="currentColor" fill-rule="evenodd"/></svg>
