<svg id="i-video" viewBox="0 0 18 18" xmlns="http://www.w3.org/2000/svg"><path d="M16.005 2A2 2 0 0 1 18 4.006v9.988A2 2 0 0 1 16.005 16H1.995A2 2 0 0 1 0 13.994V4.006A2 2 0 0 1 1.995 2zm0 1H1.995A1 1 0 0 0 1 4.006v9.988A1 1 0 0 0 1.995 15h14.01A1 1 0 0 0 17 13.994V4.006A1 1 0 0 0 16.005 3zm-8.31 2.25L12.3 7.99c.937.557.93 1.464 0 2.017l-4.604 2.74c-.937.557-1.696.165-1.696-.894v-5.71c0-1.05.767-1.446 1.696-.894zm-.674.96v5.575c0 .3-.108.245.166.085l4.584-2.675c.305-.178.305-.216 0-.394L7.187 6.126c-.267-.156-.166-.207-.166.084z" fill="currentColor" fill-rule="evenodd"/></svg>
