<svg width="200" height="31" xmlns="http://www.w3.org/2000/svg"><g fill="#FFF" fill-rule="nonzero"><path d="M98.837 7.362c-2.868 0-4.573 1.783-5.194 3.566h-.077v-3.41h-.078L89.535 8.68c.543.697.93 2.325.93 4.185v12.632c0 1.783-.077 3.953-.465 5.503h4.109c-.388-1.55-.466-3.41-.466-5.503v-1.162c1.163.387 2.093.543 3.411.543 5.892 0 8.217-4.728 8.217-9.3 0-5.425-2.713-8.215-6.434-8.215zM97.054 23.25c-1.705 0-2.713-.698-3.41-1.395V11.547c.775-1.162 2.015-1.86 3.72-1.86 3.179 0 4.574 2.093 4.574 6.278 0 4.65-1.395 7.285-4.884 7.285zm17.52-15.81c-4.031 0-7.752 3.41-7.752 8.835 0 5.115 3.566 8.603 8.062 8.603 4.03 0 7.752-3.41 7.752-8.835 0-5.115-3.489-8.603-8.062-8.603zm.31 15.887c-2.713 0-4.574-2.092-4.574-7.362 0-5.037 1.628-6.975 4.264-6.975 2.713 0 4.573 2.092 4.573 7.362 0 5.038-1.628 6.976-4.263 6.976zm16.899-15.965c-2.248 0-3.643 1.396-4.264 4.108h-.077V7.517l-3.954 1.163c.543.697.93 2.325.93 4.185v6.123c0 1.782-.077 3.952-.465 5.58h4.031c-.387-1.473-.387-3.488-.387-5.503v-5.27c0-2.092 1.163-3.875 2.48-3.875.466 0 .776.31 1.086.697.31.31.62.62 1.318.62 1.085 0 1.628-.62 1.628-1.782-.078-1.395-1.086-2.093-2.326-2.093zm18.372 2.403h3.566l.388-1.938h-3.954v-2.79c0-2.557 1.085-3.487 2.48-3.487.698 0 1.008.31 1.241 1.162.31 1.008.775 1.473 1.628 1.473.853 0 1.473-.62 1.473-1.55 0-1.472-1.473-2.48-3.876-2.48-3.489 0-6.047 2.248-6.047 6.51V7.75H140V4.418h-.078l-5.038 5.27v.077h1.938v10.462c0 3.178 1.395 4.65 4.418 4.65 1.783 0 2.946-.774 3.411-1.86.155-.387.155-.62.233-1.007-.62.31-1.396.465-2.48.465-1.474 0-2.482-.698-2.482-2.48V9.765h7.055v9.223c0 1.782-.078 3.952-.465 5.58h4.263c-.465-1.55-.62-3.72-.62-5.58V9.764z"/><path d="M161.318 7.44c-4.031 0-7.752 3.41-7.752 8.835 0 5.115 3.566 8.603 8.062 8.603 4.03 0 7.752-3.41 7.752-8.835 0-5.115-3.489-8.603-8.062-8.603zm.31 15.887c-2.713 0-4.574-2.092-4.574-7.362 0-5.037 1.628-6.975 4.264-6.975 2.713 0 4.573 2.092 4.573 7.362.078 5.038-1.627 6.976-4.263 6.976zm12.946-19.065c0-.31.077-3.72.077-4.262h-.077l-4.031 1.163c.542.697.93 2.324.93 4.185V18.91c0 1.782-.078 3.953-.465 5.58h4.108c-.465-1.627-.465-3.797-.465-5.58V4.262h-.077zm7.054 7.285l.077-4.03-4.108 1.163c.543.697.93 2.325.93 4.185v6.123c0 1.782-.077 3.952-.465 5.58h4.109c-.466-1.628-.466-3.798-.466-5.58v-7.44h-.077zm-1.783-6.355c1.24 0 2.093-.93 2.093-2.014 0-1.163-.853-2.015-2.093-2.015-1.163 0-2.016.93-2.016 2.014 0 1.086.853 2.015 2.016 2.015zm11.86 2.248c-4.03 0-7.752 3.41-7.752 8.835 0 5.115 3.566 8.603 8.063 8.603 4.03 0 7.751-3.41 7.751-8.835 0-5.115-3.565-8.603-8.062-8.603zm.31 15.887c-2.713 0-4.573-2.092-4.573-7.362 0-5.037 1.628-6.975 4.263-6.975 2.714 0 4.574 2.092 4.574 7.362 0 5.038-1.628 6.976-4.263 6.976zM15.505 12.4c0-3.332-1.008-5.038-4.496-5.038-2.326 0-4.264 1.085-5.35 3.72h-.077V7.518l-.077-.077L0 8.99c.698.775 1.24 2.248 1.24 3.875v6.045c0 2.015-.077 4.03-.62 5.58h5.66c-.466-1.473-.544-3.255-.544-5.425v-7.44c.776-.697 1.628-1.008 2.946-1.008 1.628 0 2.326.62 2.326 2.17v6.278c0 2.17-.078 3.952-.543 5.425h5.659c-.465-1.55-.62-3.565-.62-5.58V12.4zm14.651 7.595v-7.363c0-3.564-1.628-5.27-5.969-5.27-3.333 0-6.59 1.628-6.59 3.953 0 1.162.854 1.783 1.861 1.783 1.086 0 1.783-.543 2.093-2.248.233-1.085.62-1.55 1.783-1.55 1.783 0 2.403.93 2.403 2.867v.31c0 1.705-1.317 2.403-3.72 3.333-2.559 1.007-4.962 2.092-4.962 4.805 0 2.558 1.706 4.185 4.419 4.185 2.17 0 3.643-.93 4.341-3.1h.077c.078 1.628 1.163 3.1 3.334 3.1 1.86 0 2.79-.93 3.256-2.325.077-.31.155-.543.232-1.085-.232.155-.697.232-.93.232-1.085.155-1.628-.232-1.628-1.627zm-4.574 1.317c-.31.698-.775 1.163-2.093 1.163-1.317 0-2.093-.93-2.093-2.402 0-1.783.543-2.636 2.17-3.41 1.241-.62 1.706-.853 2.016-1.396v6.046zm12.248-1.937v-9.068h3.799l.31-2.557h-4.186V3.797h-.155l-6.357 6.356-.077.154h2.17v9.766c0 3.177 1.55 4.882 4.807 4.882 2.325 0 3.41-.852 4.03-2.17.233-.465.31-.775.388-1.395-.62.31-1.318.465-2.325.465-1.55 0-2.404-.698-2.404-2.48zm19.923-11.78l-5.194.542c.543 1.473.698 2.945.698 4.65v7.828c-.62.853-1.706 1.318-3.101 1.318-1.705 0-2.403-1.008-2.403-2.713V7.595l-5.116.542c.542 1.473.697 2.945.697 4.65v6.588c0 3.332 1.318 5.503 5.04 5.503 2.945 0 4.263-1.55 4.96-3.72h.078v3.332h5.039c-.388-1.24-.698-2.402-.698-5.037V7.595zm13.953 2.093c0-1.473-.852-2.326-2.558-2.326-2.093 0-3.488 1.473-4.186 4.495h-.077v-4.34l-.078-.077-5.426 1.55c.698.775 1.24 2.248 1.24 3.875v6.045c0 2.015-.155 4.03-.62 5.58h5.736c-.465-1.473-.62-3.487-.62-5.735v-4.03c0-2.557 1.008-4.107 1.938-4.107.698 0 1.086 1.317 2.636 1.317 1.008 0 2.015-.93 2.015-2.248zm8.45 11.934c-2.868 0-4.961-1.86-5.039-5.967v-.31h10c0-5.193-1.938-7.983-6.589-7.983-4.574 0-7.83 3.72-7.83 9.223 0 5.502 3.567 8.37 7.908 8.37 3.72 0 5.814-2.325 6.511-5.037l-.077-.233c-.698.698-2.17 1.938-4.884 1.938zM78.45 9.377c2.015 0 2.48 1.705 2.48 4.263l-5.736.542c.31-3.41 1.395-4.805 3.256-4.805z"/></g></svg>