<?xml version="1.0" encoding="UTF-8"?>
<svg width="112px" height="30px" viewBox="0 0 112 30" version="1.1" xmlns="http://www.w3.org/2000/svg" xmlns:xlink="http://www.w3.org/1999/xlink">
    <title>logo-springer-greyscale</title>
    <g id="logo-springer-greyscale" stroke="none" stroke-width="1" fill="none" fill-rule="evenodd">
        <g id="XMLID_24_" fill="#555555">
            <path d="M87.669,12.673 C88.531,12.673 89.353,12.878 90.051,13.248 C91.119,13.207 92.186,13.084 93.172,12.961 L93.335,13.206 C93.171,13.575 92.719,14.274 92.35,14.479 L91.159,14.356 C91.488,14.808 91.734,15.711 91.734,16.409 C91.734,18.914 89.476,20.269 87.423,20.269 C87.3,20.269 86.971,20.228 86.684,20.228 C86.191,20.392 85.781,20.967 85.781,21.336 C85.781,21.706 86.151,22.158 87.136,22.158 L89.6,22.158 C91.037,22.158 92.967,22.856 92.967,25.155 C92.967,27.783 90.216,30 87.013,30 C84.221,30 82.742,28.276 82.742,26.879 C82.742,25.976 83.194,25.278 85.124,23.799 C84.426,23.553 83.194,22.855 83.276,21.541 C84.221,21.131 85.083,20.391 85.452,19.94 C84.344,19.57 83.317,18.256 83.317,16.779 C83.317,14.11 85.699,12.673 87.669,12.673 Z M46.362,12.467 L46.362,14.027 L48.579,12.877 C48.866,12.713 49.154,12.672 49.441,12.672 C51.987,12.672 53.424,14.889 53.424,17.024 C53.424,20.474 50.961,22.814 47.881,23.184 C47.224,23.143 46.69,23.02 46.362,22.897 L46.362,26.756 C46.362,28.152 46.526,28.276 48.415,28.44 L48.415,29.22 L42.626,29.22 L42.626,28.44 C44.104,28.276 44.227,28.153 44.227,26.756 L44.227,15.793 C44.227,14.356 44.186,14.315 42.79,14.192 L42.79,13.494 C44.022,13.248 45.171,12.878 46.362,12.467 Z M23.651,26.715 L23.651,29.097 L4.27,29.097 L4.27,26.715 L23.651,26.715 Z M87.464,23.964 C85.698,23.964 84.918,25.278 84.918,26.264 C84.918,27.66 86.15,28.728 87.998,28.728 C90.051,28.728 91.201,27.373 91.201,26.018 C91.2,25.155 90.707,24.457 90.092,24.211 C89.517,24.005 88.737,23.964 87.464,23.964 Z M37.206,7.212 C38.274,7.212 39.423,7.499 40.573,7.91 C40.655,8.772 40.737,9.758 40.778,11.483 L39.916,11.524 C39.505,10.086 38.849,8.321 36.754,8.321 C35.194,8.321 34.413,9.389 34.413,10.662 C34.413,14.563 41.558,13.742 41.558,18.833 C41.558,21.254 39.381,23.348 36.179,23.348 C34.619,23.348 33.387,22.978 32.196,22.445 C31.95,21.377 31.867,19.94 31.785,18.462 L32.73,18.298 C33.264,20.31 34.003,22.281 36.466,22.281 C38.191,22.281 39.217,21.213 39.217,19.612 C39.217,17.5424894 37.5356469,16.7120217 35.8185203,15.8308058 L35.3708448,15.5989241 C33.7343268,14.7382512 32.196,13.7285319 32.196,11.441 C32.196,9.224 34.003,7.212 37.206,7.212 Z M98.919,12.672 C100.931,12.672 102.532,14.397 102.532,16.327 C102.533,16.942 102.409,17.189 101.958,17.271 C101.589,17.312 98.755,17.517 96.169,17.6 C96.251,20.31 97.852,21.459 99.454,21.459 C100.357,21.459 101.014,21.213 101.835,20.392 L102.369,21.131 C101.014,22.814 99.412,23.225 98.673,23.225 C95.758,23.225 94.074,21.008 94.074,18.38 C94.074,15.177 96.497,12.672 98.919,12.672 Z M12.441,2.078 C12.975,2.119 13.468,2.201 13.919,2.284 C14.001,2.038 14.248,1.832 14.535,1.832 C14.904,1.832 15.151,2.119 15.151,2.448 L15.151,2.612 C16.014,2.899 16.835,3.31 17.574,3.762 C17.697,3.598 17.861,3.515 18.066,3.515 C18.436,3.515 18.682,3.802 18.682,4.131 C18.682,4.295 18.641,4.418 18.559,4.501 C19.257,5.076 19.832,5.774 20.366,6.513 C20.448,6.472 20.571,6.431 20.653,6.431 C21.022,6.431 21.31,6.718 21.31,7.047 C21.31,7.294 21.187,7.499 20.982,7.581 C21.393,8.32 21.721,9.141 21.967,10.003 C22.008,9.962 22.09,9.962 22.131,9.962 C22.5,9.962 22.747,10.249 22.747,10.578 C22.747,10.907 22.542,11.153 22.296,11.194 C22.46,12.056 22.583,12.919 22.665,13.822 C23.034,13.822 23.322,14.109 23.322,14.438 C23.322,14.807 23.035,15.053 22.706,15.095 C22.706,15.957 22.665,16.902 22.583,17.805 C22.911,17.846 23.158,18.133 23.158,18.462 C23.158,18.791 22.871,19.078 22.501,19.078 L22.46,19.078 C22.296,19.981 22.132,20.884 21.926,21.829 L23.651,21.829 L23.651,23.02 L4.27,23.02 L4.27,21.829 L5.913,21.829 C6.2,17.969 9.895,16.532 11.949,13.412 L9.568,13.412 C8.418,13.823 6.693,16.368 6.693,17.846 L3.696,17.846 L3.737,16.614 L2.751,17.435 L0.123,14.397 C0.123,14.397 -7.99360578e-14,14.233 -7.99360578e-14,14.11 C-7.99360578e-14,13.987 0.041,13.904 0.041,13.904 L4.188,8.279 L4.927,6.062 L6.036,5.652 L7.186,4.051 L6.775,1.257 C7.883,0.846 8.951,1.216 9.485,1.749 C9.520875,1.030625 9.46257812,0.24946875 9.44744336,0.0654042969 L9.444,0.025 L9.444,0.025 C11.415,-0.18 12.112,0.887 12.441,2.078 Z M107.624,12.631 L107.624,15.095 L107.665,15.095 C108.363,13.74 109.389,12.673 110.375,12.673 C111.155,12.673 111.771,13.289 111.771,13.946 C111.771,14.889 110.745,15.711 110.293,15.218 C110.006,14.931 109.636,14.807 109.308,14.807 C108.774,14.807 108.076,15.423 107.625,16.696 L107.625,20.515 C107.625,21.911 107.789,22.035 109.554,22.158 L109.554,22.979 L103.929,22.979 L103.929,22.158 C105.366,22.035 105.489,21.911 105.489,20.515 L105.489,15.875 C105.489,14.479 105.407,14.479 104.093,14.232 L104.093,13.534 C105.407,13.287 106.557,13.041 107.624,12.631 Z M73.912,12.631 L73.912,14.274 C74.446,13.822 76.006,12.673 77.197,12.673 C79.045,12.673 80.194,13.946 80.194,15.835 L80.194,20.598 C80.194,21.912 80.4,22.036 81.632,22.159 L81.632,22.979 L76.788,22.979 L76.788,22.158 C77.938,22.035 78.102,21.911 78.102,20.597 L78.102,16.573 C78.102,15.095 77.445,14.191 76.213,14.191 C75.433,14.191 74.529,14.766 73.913,15.341 L73.913,20.597 C73.913,21.911 74.037,22.035 75.186,22.158 L75.186,22.979 L70.176,22.979 L70.176,22.158 C71.572,22.035 71.777,21.911 71.777,20.597 L71.777,15.875 C71.777,14.479 71.695,14.397 70.463,14.232 L70.463,13.534 C71.695,13.287 72.845,13.041 73.912,12.631 Z M58.598,12.631 L58.598,15.095 L58.639,15.095 C59.378,13.74 60.405,12.673 61.349,12.673 C62.171,12.673 62.745,13.289 62.745,13.946 C62.745,14.889 61.76,15.711 61.225,15.218 C60.979,14.889 60.65,14.807 60.24,14.807 C59.706,14.807 59.049,15.423 58.597,16.696 L58.597,20.515 C58.597,21.911 58.761,22.035 60.527,22.158 L60.527,22.979 L54.943,22.979 L54.943,22.158 C56.339,22.035 56.504,21.911 56.504,20.515 L56.504,15.875 C56.504,14.479 56.381,14.479 55.108,14.232 L55.108,13.534 C56.34,13.287 57.531,13.041 58.598,12.631 Z M67.508,12.632 L67.508,20.434 C67.508,21.912 67.631,22.035 69.069,22.158 L69.069,22.979 L63.813,22.979 L63.813,22.158 C65.209,22.035 65.414,21.911 65.414,20.434 L65.414,15.999 C65.414,14.398 65.291,14.398 63.936,14.233 L63.936,13.535 C65.209,13.288 66.481,13.001 67.508,12.632 Z M48.415,14.191 C47.758,14.191 46.896,14.643 46.362,14.971 L46.362,21.048 C46.814,21.541 47.553,21.91 48.456,21.91 C49.647,21.91 51.207,21.007 51.207,17.928 C51.207,15.341 49.975,14.191 48.415,14.191 Z M10.634,1.298 L10.6332721,1.37015682 C10.6284197,1.68356522 10.5912174,2.96878261 10.306,4.254 L9.198,4.05 C9.198,3.023 8.746,2.613 8.131,2.325 L8.418,4.337 L7.719,5.364 L8.048,6.308 L5.872,7.047 L5.256,8.813 L1.437,14.069 L2.875,15.793 L4.476,14.438 L4.845,14.684 L4.845,16.696 L5.707,16.696 C6.077,15.259 7.267,13.575 8.376,12.754 L7.76,12.015 L8.663,11.235 L9.525,12.303 L9.7720683,12.3027843 C9.81054615,12.3027304 9.85282116,12.302663 9.89838703,12.3025788 L10.2072224,12.3018442 C11.1144896,12.2992023 12.605,12.2905217 12.605,12.262 C13.057,11.277 13.344,10.086 13.344,8.69 L14.535,8.69 C14.535,13.371 12.195,15.219 9.279,18.093 C8.211,19.16 7.267,20.31 7.144,21.87 L20.694,21.87 C23.076,12.056 20.283,4.255 12.687,3.351 C12.7198,3.6798 12.72636,3.95548 12.727672,4.221048 L12.728,4.419 C12.728,4.912 12.687,5.322 12.687,5.322 L11.497,5.116 C11.538,4.705 11.62,1.913 10.634,1.298 Z M87.464,13.658 C86.602,13.658 85.616,14.561 85.616,16.286 C85.616,18.011 86.519,19.243 87.751,19.243 C88.654,19.243 89.517,18.463 89.517,16.574 C89.517,14.972 88.736,13.658 87.464,13.658 Z M98.468,13.699 C97.524,13.699 96.538,14.726 96.292,16.491 L99.823,16.409 C100.275,16.409 100.357,16.286 100.357,15.875 C100.356,14.766 99.577,13.699 98.468,13.699 Z M2.834,12.755 L3.573,12.796 C3.614,13.33 3.532,14.151 3.244,14.562 L2.382,14.233 C2.669,13.823 2.834,13.248 2.834,12.755 Z M66.358,7.622 C67.18,7.622 67.795,8.238 67.795,9.059 C67.795,9.839 67.18,10.455 66.358,10.455 C65.578,10.455 64.962,9.839 64.962,9.059 C64.962,8.238 65.578,7.622 66.358,7.622 Z M8.253,7.498 L8.294,8.238 L6.447,9.223 L6.323,7.704 L8.253,7.498 Z" id="Combined-Shape"></path>
        </g>
    </g>
</svg>