<svg id="icon-metric-citation" viewBox="0 0 64 64" width="64" height="64" xmlns="http://www.w3.org/2000/svg">
	<defs>
		<linearGradient id="r05d7uuwpb" x1="0%" x2="100%" y1="50%" y2="50%">
			<stop offset="0%" stop-color="#356677" stop-opacity="0" />
			<stop offset="100%" stop-color="#183642" stop-opacity=".797" />
		</linearGradient>
		<filter id="0k625ly7xa">
			<feColorMatrix in="SourceGraphic"
							values="0 0 0 0 0.282353 0 0 0 0 0.415686 0 0 0 0 0.494118 0 0 0 1.000000 0" />
		</filter>
	</defs>
	<g fill="none" fill-rule="evenodd">
		<circle cx="32" cy="32" r="32" fill="#CEDBE0" />
		<g filter="url(#0k625ly7xa)">
			<g transform="translate(14 14)">
				<path fill="url(#r05d7uuwpb)" fill-rule="nonzero" d="M32 4H4v20h9.998l4 5.332 4-5.332H32z"
						opacity=".25" />
				<path fill="#183642" fill-rule="nonzero"
						d="M32 0a4 4 0 014 4v20a4 4 0 01-4 4h-8.002L18 36l-6.002-8H4a4 4 0 01-4-4V4a4 4 0 014-4h28zm0 4H4v20h9.998l4 5.332 4-5.332H32V4z" />
				<rect width="20" height="4" x="8" y="8" fill="#666" opacity=".801" rx="2" />
				<rect width="12" height="4" x="8" y="16" fill="#666" opacity=".48" rx="2" />
				<rect width="6" height="4" x="22" y="16" fill="#666" opacity=".48" rx="2" />
			</g>
		</g>
	</g>
</svg>
