<svg width="131" height="32" xmlns="http://www.w3.org/2000/svg"><path d="M8.4 5.52l.08 5.52h.16c1.12-3.12 3.92-5.68 8-5.68 5.28 0 6.88 2.64 6.88 7.68v9.92c0 3.04.16 6.16.88 8.48h-8.56c.72-2.24.8-4.96.8-8.24v-9.44c0-2.32-.88-3.36-3.44-3.36-1.92 0-3.36.56-4.48 1.52v11.36c0 3.28.08 6 .8 8.24H1.04c.8-2.32.88-5.52.88-8.48v-9.28c0-2.48-.88-4.72-1.92-5.84l8.4-2.4zm30.72 21.04v-9.28c-.56.8-1.2 1.28-3.04 2.08-2.4 1.2-3.28 2.48-3.28 5.12 0 2.24 1.28 3.68 3.2 3.68 1.92.08 2.56-.64 3.12-1.6zM36.88 5.44c6.56 0 9.04 2.64 9.04 8v11.2c0 2 .8 2.64 2.4 2.64.24 0 1.12-.16 1.36-.4-.16.8-.24 1.2-.4 1.6-.8 2.24-2.16 3.52-4.88 3.52-3.28 0-4.88-2.32-4.96-4.64h-.08C38.24 30.64 36.16 32 32.8 32c-4.08 0-6.72-2.48-6.72-6.32 0-4.08 3.68-5.84 7.52-7.28 3.68-1.44 5.6-2.48 5.6-5.12v-.56c0-2.88-.88-4.32-3.6-4.32-1.68 0-2.32.8-2.64 2.4-.56 2.48-1.52 3.36-3.12 3.36-1.44 0-2.8-.96-2.8-2.8-.16-3.52 4.8-5.92 9.84-5.92zm27.68 23.2c-.88 2-3.04 3.36-6.08 3.36-5.2 0-7.28-2.64-7.28-7.44V9.52h-2.48v-.16L57.76 0l.16.08V6h6.56l-.64 3.6H58v13.92c0 2.64 1.12 3.76 3.52 3.76 1.84 0 2.8-.24 3.68-.72-.24.88-.32 1.36-.64 2.08zm9.36-22.8v17.6c0 2.64 1.04 4.08 3.6 4.08 2.16 0 3.76-.72 4.72-1.92V13.68c0-2.64-.24-4.8-1.12-7.04l7.84-.8v18c0 4 .4 5.76 1.04 7.68h-7.68V26.4h-.08c-1.12 3.28-3.2 5.6-7.6 5.6-5.52 0-7.6-3.36-7.6-8.32v-10c0-2.64-.24-4.8-1.12-7.04l8-.8zm25.76 6.08c1.12-4.72 3.28-6.56 6.16-6.56 2.64 0 4 1.36 4 3.52 0 1.92-1.12 3.52-3.12 3.52-1.2 0-1.92-.56-2.4-1.04-.56-.56-.96-1.12-1.6-1.12-1.36 0-2.88 2.32-2.88 6.16v6.4c0 3.12.24 6.24.88 8.64h-8.48c.8-2.32.88-5.52.88-8.48v-9.2c0-2.48-.88-4.72-1.92-5.84l8.32-2.4.08.08V12l.08-.08zm16.08 3.76l8.56-.8c-.08-4.08-.72-6.48-3.52-6.48-2.88.08-4.56 2.4-5.04 7.28zM120.88 32c-6.56 0-11.92-4.32-11.92-12.64 0-8.4 5.12-14.08 12.08-14.08 6.56 0 9.68 4.16 9.68 12.08h-14.96v.8c0 6.32 3.28 8.88 7.76 8.88 4.08 0 5.84-1.6 7.04-2.8l.16.4c-1.12 3.84-4.16 7.36-9.84 7.36z" fill="#000" fill-rule="nonzero"/></svg>