<svg version="1.0" xmlns="http://www.w3.org/2000/svg" width="722.667" height="722.667" viewBox="0 0 542 542"><path d="M249.5.6c-11.9 1.3-28.1 3.8-36 5.5C109.6 29.1 29.1 109.6 6.1 213.5 1.7 233.3.6 245.5.6 271s1.1 37.7 5.5 57.5c23 103.9 103.5 184.4 207.4 207.4 19.8 4.4 32 5.5 57.5 5.5s37.7-1.1 57.5-5.5c103.9-23 184.4-103.5 207.4-207.4 4.4-19.8 5.5-32 5.5-57.5s-1.1-37.7-5.5-57.5c-22.8-103.2-102-183-205.4-207-16.8-3.9-32.9-5.7-55-6-12.1-.2-23.8-.1-26 .1zM335.6 125c18.5 2.3 31.1 7.7 40.8 17.4 7.2 7.2 11.6 15 14.9 26.6 4.3 14.8 4.7 22.4 4.7 96 0 88.1 1.5 114.2 8 139.5 1.1 4.3 2 8.2 2 8.7 0 .4-21.1.8-47 .8-25.8 0-47-.4-47-.8 0-.5.9-4.3 1.9-8.4 1.1-4.1 2.8-13.5 3.8-20.9 1.6-12.1 1.8-21.6 1.8-96.4 0-76.6-.1-83.4-1.8-88-2.3-6.7-6.8-12-12.6-14.9-16.8-8.6-50.3-4.6-67.4 8l-4.8 3.5.4 88.7c.4 94.7.6 99.2 5.7 119.6 1.1 4.4 2 8.3 2 8.8 0 .4-21.1.8-47 .8s-47-.4-47-.8c0-.5.9-4.4 2-8.7 6.3-24.7 8-51.8 8-131 0-62.7-.4-71.2-4.1-86-2.2-8.6-10-25.8-14.3-31.4-1.4-1.9-2.3-3.8-1.9-4.2 1.3-1.1 91.7-26.8 92.5-26.3.4.3.8 14.3.9 31.2v30.7l3.8-8.1c18.8-39.9 56.5-60.1 101.7-54.4z"/></svg>