<?xml version="1.0" standalone="no"?>
<!DOCTYPE svg PUBLIC "-//W3C//DTD SVG 20010904//EN"
 "http://www.w3.org/TR/2001/REC-SVG-20010904/DTD/svg10.dtd">
<svg version="1.0" xmlns="http://www.w3.org/2000/svg"
 width="709.000000pt" height="709.000000pt" viewBox="0 0 709.000000 709.000000"
 preserveAspectRatio="xMidYMid meet">
<metadata>
Created by potrace 1.11, written by Peter Selinger 2001-2013
</metadata>
<g transform="translate(0.000000,709.000000) scale(0.100000,-0.100000)"
fill="#000000" stroke="none">
<path d="M3 4008 c1 -1696 5 -3092 9 -3103 3 -11 9 -40 13 -65 10 -59 51 -192
80 -255 123 -271 347 -450 660 -529 81 -20 113 -24 225 -32 91 -6 101 -4 240
36 80 23 153 43 163 45 9 2 21 6 25 9 5 3 19 7 33 10 24 5 1126 318 1184 337
34 10 356 102 455 129 36 10 162 46 280 80 118 34 238 68 265 75 28 7 138 39
245 70 176 51 240 70 335 95 17 5 71 20 120 35 50 14 115 33 145 41 30 8 76
21 101 30 25 8 54 16 65 18 10 3 66 18 124 34 58 17 258 74 445 127 187 54
464 133 615 177 151 43 283 81 293 83 10 2 154 43 320 90 166 48 309 88 317
90 8 2 47 13 85 25 39 12 77 23 86 25 9 2 48 13 88 25 l71 21 0 2679 0 2680
-3545 0 -3545 0 3 -3082z"/>
</g>
</svg>
