<?xml version="1.0" standalone="no"?>
<!DOCTYPE svg PUBLIC "-//W3C//DTD SVG 20010904//EN"
 "http://www.w3.org/TR/2001/REC-SVG-20010904/DTD/svg10.dtd">
<svg version="1.0" xmlns="http://www.w3.org/2000/svg"
 width="542.000000pt" height="542.000000pt" viewBox="0 0 542.000000 542.000000"
 preserveAspectRatio="xMidYMid meet">
<metadata>
Created by potrace 1.11, written by Peter Selinger 2001-2013
</metadata>
<g transform="translate(0.000000,542.000000) scale(0.100000,-0.100000)"
fill="#000000" stroke="none">
<path d="M2495 5414 c-119 -13 -281 -38 -360 -55 -1039 -230 -1844 -1035
-2074 -2074 -44 -198 -55 -320 -55 -575 0 -255 11 -377 55 -575 230 -1039
1035 -1844 2074 -2074 198 -44 320 -55 575 -55 255 0 377 11 575 55 1039 230
1844 1035 2074 2074 44 198 55 320 55 575 0 255 -11 377 -55 575 -228 1032
-1020 1830 -2054 2070 -168 39 -329 57 -550 60 -121 2 -238 1 -260 -1z m861
-1244 c185 -23 311 -77 408 -174 72 -72 116 -150 149 -266 43 -148 47 -224 47
-960 0 -881 15 -1142 80 -1395 11 -43 20 -82 20 -87 0 -4 -211 -8 -470 -8
-258 0 -470 4 -470 8 0 5 9 43 19 84 11 41 28 135 38 209 16 121 18 216 18
964 0 766 -1 834 -18 880 -23 67 -68 120 -126 149 -168 86 -503 46 -674 -80
l-48 -35 4 -887 c4 -947 6 -992 57 -1196 11 -44 20 -83 20 -88 0 -4 -211 -8
-470 -8 -259 0 -470 4 -470 8 0 5 9 44 20 87 63 247 80 518 80 1310 0 627 -4
712 -41 860 -22 86 -100 258 -143 314 -14 19 -23 38 -19 42 13 11 917 268 925
263 4 -3 8 -143 9 -312 l0 -307 38 81 c188 399 565 601 1017 544z"/>
</g>
</svg>
