<svg height="24" viewBox="0 0 24 24" width="24" xmlns="http://www.w3.org/2000/svg"><path d="m17 11c.5522847 0 1 .4477153 1 1v7h2.5c.2761424 0 .5.2238576.5.5v1.5h-18v-1.5c0-.2761424.22385763-.5.5-.5h2.5v-7c0-.5522847.44771525-1 1-1s1 .4477153 1 1v6.9996556h8v-6.9996556c0-.5522847.4477153-1 1-1zm-8 0 2 1v5l-2 1zm6 0v7l-2-1v-5zm-2.4265377-7.59857636 7.0355472 4.92488299c.4162533.29137735.5174853.86502537.226108 1.28127873-.1721584.24594054-.4534847.39241464-.7536934.39241464h-14.16284822c-.50810197 0-.92-.41189803-.92-.92 0-.30020869.1464741-.58153499.39241464-.75369337l7.03554718-4.92488299c.3443201-.2410241.8026045-.2410241 1.1469246 0zm-.5734623 2.03988748-3.65526982 2.55868888h7.31053962z" fill="#666" fill-rule="evenodd"/></svg>