<svg height="24" viewBox="0 0 24 24" width="24" xmlns="http://www.w3.org/2000/svg"><path d="m15.5302405 16.8891403 4.176208-4.1762079c.3912076-.3912077.3916069-1.0250814-.0000316-1.4167199l-4.1763942-4.17639422c-.3912252-.39122514-1.0190815-.39767006-1.4001736-.01657798-.3911301.39113012-.3930364 1.02337106.003106 1.41951349l2.4818345 2.48183451h-11.6147896l-.11662113.0067277c-.49733868.0577651-.88337887.4804364-.88337887.9932723 0 .5128358.38604019.9355071.88337887.9932722l.11662113.0067278h11.6147896l-2.4816273 2.4816273c-.3928222.3928221-.4005617 1.0219731-.0194697 1.4030652.3911302.3911301 1.0249269.3914806 1.4165479-.0001405z" fill="#666" fill-rule="evenodd"/></svg>