<svg height="24" viewBox="0 0 24 24" width="24" xmlns="http://www.w3.org/2000/svg"><path d="m11 8v7.7999954l-2.48162731-2.4816273c-.39282216-.3928221-1.02197315-.4005617-1.40306523-.0194696-.39113012.3911301-.3914806 1.0249268.00014045 1.4165479l4.17620789 4.1762079c.3912077.3912077 1.0250815.3916069 1.41672-.0000316l4.1763942-4.1763942c.3912251-.3912251.39767-1.0190815.016578-1.4001736-.3911302-.3911301-1.0233711-.3930364-1.4195135.0031061l-2.4818345 2.4818344v-8.7999954c0-.54911294-.4426881-.99439484-.9977876-.99557515l-8.0022124-.00442485c-.55228475 0-1 .44771525-1 1s.44771525 1 1 1z" fill="#666" fill-rule="evenodd"/></svg>