<?xml version="1.0" encoding="UTF-8"?>
<svg width="24px" height="24px" viewBox="0 0 24 24" version="1.1" xmlns="http://www.w3.org/2000/svg" xmlns:xlink="http://www.w3.org/1999/xlink">
    <!-- Generator: Sketch 63.1 (92452) - https://sketch.com -->
    <title>icon-icon / article</title>
    <desc>Created with Sketch.</desc>
    <g id="icon-/-article" stroke="none" stroke-width="1" fill="none" fill-rule="evenodd">
        <path d="M16,18 L16,5.0093689 C16,5.0020094 15.9980116,5 16.0014977,5 L4.99990882,5.00087166 L4.99990882,18.0059397 C4.99990882,18.5542075 5.44606163,19 5.99406028,19 L16.2675644,19 C16.0973943,18.7058266 16,18.3642871 16,18 Z M4,18.0059397 L4,5.00087166 C4,4.44463086 4.44704472,4 4.99850233,4 L16.0014977,4 C16.5525106,4 17,4.45190985 17,5.0093689 L17,8 L20,8 L20,17.9914698 C20,19.0980496 19.1072288,20 18.0059397,20 L5.99406028,20 C4.89451376,20 4,19.1072288 4,18.0059397 Z M17,9 L17,18 C17,18.5522847 17.4477153,19 18,19 C18.5522847,19 19,18.5522847 19,18 L19,9 L17,9 Z M7,7 L14,7 L14,11 L7,11 L7,7 Z M8,8 L8,10 L13,10 L13,8 L8,8 Z M7,12 L14,12 L14,13 L7,13 L7,12 Z M7,14 L14,14 L14,15 L7,15 L7,14 Z M7,16 L14,16 L14,17 L7,17 L7,16 Z" id="article" fill="#666666"></path>
    </g>
</svg>