<?xml version="1.0" encoding="UTF-8"?>
<svg width="24px" height="24px" viewBox="0 0 24 24" version="1.1" xmlns="http://www.w3.org/2000/svg" xmlns:xlink="http://www.w3.org/1999/xlink">
    <!-- Generator: Sketch 63.1 (92452) - https://sketch.com -->
    <title>icon-icon / audio</title>
    <desc>Created with Sketch.</desc>
    <g id="icon-/-audio" stroke="none" stroke-width="1" fill="none" fill-rule="evenodd">
        <path d="M16.0935866,16.5958311 C15.8983398,16.7911085 15.5817573,16.7911334 15.3864799,16.5958866 C15.1912024,16.4006398 15.1911775,16.0840573 15.3864243,15.8887798 C16.4113556,14.8636876 16.9970296,13.478843 16.9970296,12 C16.9970296,10.5220439 16.4120627,9.13796114 15.3882215,8.11301844 C15.1930643,7.91765134 15.1932345,7.6010689 15.3886016,7.40591176 C15.5839687,7.21075462 15.9005512,7.21092482 16.0957083,7.40629191 C17.3049974,8.61688195 17.9970296,10.2542907 17.9970296,12 C17.9970296,13.7467579 17.3041617,15.3850659 16.0935866,16.5958311 Z M18.2166355,18.7154222 C18.0214339,18.9107448 17.7048514,18.9108428 17.5095288,18.7156411 C17.3142062,18.5204394 17.3141082,18.203857 17.5093099,18.0085344 C19.0922702,16.4245938 19.9970296,14.2845533 19.9970296,12 C19.9970296,9.71578586 19.0925406,7.57603674 17.509997,5.99215324 C17.3148175,5.79680848 17.3149515,5.48022602 17.5102962,5.28504652 C17.705641,5.08986702 18.0222235,5.09000099 18.217403,5.28534574 C19.9854432,7.05488298 20.9970296,9.44799233 20.9970296,12 C20.9970296,14.5523869 19.985141,16.9458215 18.2166355,18.7154222 Z M4,15 C3.44771525,15 3,14.5522847 3,14 L3,10 C3,9.44771525 3.44771525,9 4,9 L6,9 L11.4187618,5.12945585 C11.8681744,4.80844686 12.4927245,4.91253854 12.8137335,5.36195113 C12.9348769,5.53155188 13,5.73476635 13,5.94318932 L13,18.0568107 C13,18.6090954 12.5522847,19.0568107 12,19.0568107 C11.791577,19.0568107 11.5883626,18.9916875 11.4187618,18.8705441 L6,15 L4,15 Z M4,14 L6.32046505,14 L12,18.0568107 L12,5.94318932 L6.32046505,10 L4,10 L4,14 Z" id="audio" fill="#666666"></path>
    </g>
</svg>