<svg height="24" viewBox="0 0 24 24" width="24" xmlns="http://www.w3.org/2000/svg"><path d="m16.0935866 16.5958311c-.1952468.1952774-.5118293.1953023-.7071067.0000555-.1952775-.1952468-.1953024-.5118293-.0000556-.7071068 1.0249313-1.0250922 1.6106053-2.4099368 1.6106053-3.8887798 0-1.4779561-.5849669-2.86203886-1.6088081-3.88698156-.1951572-.1953671-.194987-.51194954.0003801-.70710668s.5119496-.19498694.7071067.00038015c1.2092891 1.21059004 1.9013213 2.84799879 1.9013213 4.59370809 0 1.7467579-.6928679 3.3850659-1.903443 4.5958311zm2.1230489 2.1195911c-.1952016.1953226-.5117841.1954206-.7071067.0002189s-.1954206-.5117841-.0002189-.7071067c1.5829603-1.5839406 2.4877197-3.7239811 2.4877197-6.0085344 0-2.28421414-.904489-4.42396326-2.4870326-6.00784676-.1951795-.19534476-.1950455-.51192722.0002992-.70710672.1953448-.1951795.5119273-.19504553.7071068.00029922 1.7680402 1.76953724 2.7796266 4.16264659 2.7796266 6.71465426 0 2.5523869-1.0118886 4.9458215-2.7803941 6.7154222zm-14.2166355-3.7154222c-.55228475 0-1-.4477153-1-1v-4c0-.55228475.44771525-1 1-1h2l5.4187618-3.87054415c.4494126-.32100899 1.0739627-.21691731 1.3949717.23249528.1211434.16960075.1862665.37281522.1862665.58123819v12.11362138c0 .5522847-.4477153 1-1 1-.208423 0-.4116374-.0651232-.5812382-.1862666l-5.4187618-3.8705441zm0-1h2.32046505l5.67953495 4.0568107v-12.11362138l-5.67953495 4.05681068h-2.32046505z" fill="#666" fill-rule="evenodd"/></svg>