<?xml version="1.0" encoding="UTF-8"?>
<svg width="24px" height="24px" viewBox="0 0 24 24" version="1.1" xmlns="http://www.w3.org/2000/svg" xmlns:xlink="http://www.w3.org/1999/xlink">
    <!-- Generator: Sketch 63.1 (92452) - https://sketch.com -->
    <title>icon-icon / book</title>
    <desc>Created with Sketch.</desc>
    <g id="icon-/-book" stroke="none" stroke-width="1" fill="none" fill-rule="evenodd">
        <path d="M7,16 L7,5 L8,5 L8,16 L19,16 L19,5 L6,5 C5.44771525,5 5,5.44771525 5,6 L5,16.2675644 C5.29417337,16.0973943 5.63571286,16 6,16 L7,16 Z M19,17 L6,17 C5.44771525,17 5,17.4477153 5,18 C5,18.5522847 5.44771525,19 6,19 L19,19 L19,17 Z M19,20 L6,20 C4.8954305,20 4,19.1045695 4,18 L4,6 C4,4.8954305 4.8954305,4 6,4 L19,4 C19.5522847,4 20,4.44771525 20,5 L20,19 C20,19.5522847 19.5522847,20 19,20 Z M10.5,7 L16.5,7 C16.7761424,7 17,7.22385763 17,7.5 C17,7.77614237 16.7761424,8 16.5,8 L10.5,8 C10.2238576,8 10,7.77614237 10,7.5 C10,7.22385763 10.2238576,7 10.5,7 Z M11.5,9 L15.5,9 C15.7761424,9 16,9.22385763 16,9.5 C16,9.77614237 15.7761424,10 15.5,10 L11.5,10 C11.2238576,10 11,9.77614237 11,9.5 C11,9.22385763 11.2238576,9 11.5,9 Z" id="book" fill="#666666"></path>
    </g>
</svg>