<svg height="24" viewBox="0 0 24 24" width="24" xmlns="http://www.w3.org/2000/svg"><path d="m11.6359347 9c2.209139 0 4 1.790861 4 4 0 1.4073212-.7267788 2.6448941-1.8254829 3.3578652 1.6243528.6765659 2.8759534 2.0099488 3.4614177 3.6422777l-1.0763019.0000112c-.5308993-1.2082915-1.5109044-2.1948928-2.7696112-2.719162l-.7900217-.3290552v-1.0240018l.6301658-.4089272c.8482885-.5504714 1.3698342-1.489533 1.3698342-2.5190079 0-1.6568542-1.3431457-3-3-3-1.65685422 0-2.99999997 1.3431458-2.99999997 3 0 1.0294749.52154569 1.9685365 1.36983417 2.5190079l.6301658.4089272v1.0240018l-.79002168.3290552c-1.25870676.5242692-2.23871183 1.5108705-2.7696112 2.719162l-1.07630182-.0000112c.58546427-1.6323289 1.83706484-2.9657118 3.4614176-3.6422777-1.09870405-.7129711-1.82548287-1.950544-1.82548287-3.3578652 0-2.209139 1.790861-4 3.99999997-4zm7.368976-5c1.1018574 0 1.9950893.89354265 1.9950893 2.00276013v5.99447977c0 1.1060938-.8926228 2.0027601-1.9950893 2.0027601h-3.0049107v-1h3.0049107c.5490631 0 .9950893-.4478356.9950893-1.0027601v-5.99447977c0-.55647074-.4450595-1.00276013-.9950893-1.00276013h-14.00982141c-.54906309 0-.99508929.44783555-.99508929 1.00276013v5.99723987c0 .6666667.33333333 1 1 1h2v1h-2c-1 0-2-1-2-2v-5.99723987c0-1.10609388.8926228-2.00276013 1.99508929-2.00276013zm-8.5049107 3c.2761424 0 .5.22385763.5.5s-.2238576.5-.5.5h-4c-.27614237 0-.5-.22385763-.5-.5s.22385763-.5.5-.5zm3 0c.2761424 0 .5.22385763.5.5s-.2238576.5-.5.5h-1c-.2761424 0-.5-.22385763-.5-.5s.2238576-.5.5-.5zm4 0c.2761424 0 .5.22385763.5.5s-.2238576.5-.5.5h-2c-.2761424 0-.5-.22385763-.5-.5s.2238576-.5.5-.5z" fill="#666" fill-rule="evenodd"/></svg>