<?xml version="1.0" encoding="UTF-8"?>
<svg width="24px" height="24px" viewBox="0 0 24 24" version="1.1" xmlns="http://www.w3.org/2000/svg" xmlns:xlink="http://www.w3.org/1999/xlink">
    <!-- Generator: Sketch 63.1 (92452) - https://sketch.com -->
    <title>icon-icon / compare</title>
    <desc>Created with Sketch.</desc>
    <g id="icon-/-compare" stroke="none" stroke-width="1" fill="none" fill-rule="evenodd">
        <path d="M15,6 C18.3137085,6 21,8.6862915 21,12 C21,15.3137085 18.3137085,18 15,18 C13.9071548,18 12.8825506,17.7078258 12.0000394,17.1973296 C11.1182253,17.7076045 10.093259,18 9,18 C5.6862915,18 3,15.3137085 3,12 C3,8.6862915 5.6862915,6 9,6 C10.093259,6 11.1182253,6.29239547 12.000963,6.80325037 C12.8825506,6.29217416 13.9071548,6 15,6 Z M9,7 C6.23857625,7 4,9.23857625 4,12 C4,14.7614237 6.23857625,17 9,17 C9.74397391,17 10.4499967,16.837512 11.0845161,16.5460884 C9.80799267,15.4460072 9,13.817362 9,12 C9,10.182638 9.80799267,8.55399279 11.0843439,7.4536985 C10.4499967,7.16248796 9.74397391,7 9,7 Z M15,7 C14.2560261,7 13.5500033,7.16248796 12.9154839,7.45391156 C14.1920073,8.55399279 15,10.182638 15,12 C15,13.817362 14.1920073,15.4460072 12.9156561,16.5463015 C13.5500033,16.837512 14.2560261,17 15,17 C17.7614237,17 20,14.7614237 20,12 C20,9.23857625 17.7614237,7 15,7 Z M13.5837237,14.0005324 L10.4162763,14.0005324 C10.5724229,14.3578 10.7691147,14.6932946 11.0005351,15.0011995 L12.9994649,15.0011995 C13.2308853,14.6932946 13.4275771,14.3578 13.5837237,14.0005324 Z M14,12 L10,12 C10,12.342885 10.0345146,12.6777087 10.1002591,13.0011864 L13.8997409,13.0011864 C13.9654854,12.6777087 14,12.342885 14,12 Z M13.5841577,10.0004611 L10.4158423,10.0004611 C10.2772427,10.3177692 10.1706228,10.6522441 10.1000563,10.999812 L13.8999437,10.999812 C13.8293772,10.6522441 13.7227573,10.3177692 13.5841577,10.0004611 Z M12.0011995,8.00053506 L11.9180384,8.06252705 C11.572538,8.33333918 11.2635771,8.64864002 10.9997798,8.99980567 L13.0002202,8.99980567 C12.7160339,8.6214984 12.379433,8.28481418 12.0011995,8.00053506 Z" id="compare" fill="#666666"></path>
    </g>
</svg>