<svg height="24" viewBox="0 0 24 24" width="24" xmlns="http://www.w3.org/2000/svg"><path d="m15 6c3.3137085 0 6 2.6862915 6 6s-2.6862915 6-6 6c-1.0928452 0-2.1174494-.2921742-2.9999606-.8026704-.8818141.5102749-1.9067804.8026704-3.0000394.8026704-3.3137085 0-6-2.6862915-6-6s2.6862915-6 6-6c1.093259 0 2.1182253.29239547 3.000963.80325037.8815876-.51107621 1.9061918-.80325037 2.999037-.80325037zm-6 1c-2.76142375 0-5 2.23857625-5 5 0 2.7614237 2.23857625 5 5 5 .74397391 0 1.4499967-.162488 2.0845161-.4539116-1.27652343-1.1000812-2.0845161-2.7287264-2.0845161-4.5460884s.80799267-3.44600721 2.0843439-4.5463015c-.6343472-.29121054-1.34036999-.4536985-2.0843439-.4536985zm6 0c-.7439739 0-1.4499967.16248796-2.0845161.45391156 1.2765234 1.10008123 2.0845161 2.72872644 2.0845161 4.54608844s-.8079927 3.4460072-2.0843439 4.5463015c.6343472.2912105 1.34037.4536985 2.0843439.4536985 2.7614237 0 5-2.2385763 5-5 0-2.76142375-2.2385763-5-5-5zm-1.4162763 7.0005324h-3.1674474c.1561466.3572676.3528384.6927622.5842588 1.0006671h1.9989298c.2314204-.3079049.4281122-.6433995.5842588-1.0006671zm.4162763-2.0005324h-4c0 .342885.0345146.6777087.1002591 1.0011864h3.7994818c.0657445-.3234777.1002591-.6583014.1002591-1.0011864zm-.4158423-1.9995389h-3.1683154c-.1385996.3173081-.2452195.651783-.315786.9993509h3.7998874c-.0705665-.3475679-.1771864-.6820428-.315786-.9993509zm-1.5829582-1.99992604-.0831611.06199199c-.3455004.27081213-.6544613.58611297-.9182586.93727862h2.0004404c-.2841863-.37830727-.6207872-.71499149-.9990207-.99927061z" fill="#666" fill-rule="evenodd"/></svg>