<svg height="24" viewBox="0 0 24 24" width="24" xmlns="http://www.w3.org/2000/svg"><path d="m16.9975267 18c.5467123 0 1.0024733.4477153 1.0024733 1 0 .5561352-.4488226 1-1.0024733 1h-9.99505341c-.54671233 0-1.00247329-.4477153-1.00247329-1 0-.5561352.44882258-1 1.00247329-1zm-4.9975267-11.9955775c.5522847 0 1 .44483697 1 .9955775v6.7999954l2.4816273-2.4816273c.3928222-.3928221 1.0219732-.4005617 1.4030652-.0194696.3911302.3911301.3914806 1.0249268-.0001404 1.4165479l-4.1762079 4.1762079c-.3912077.3912077-1.0250815.3916069-1.41672-.0000316l-4.17639418-4.1763942c-.39122513-.3912251-.39767006-1.0190815-.01657797-1.4001736.39113012-.3911301 1.02337105-.3930364 1.41951349.0031061l2.48183446 2.4818344v-6.7999954c0-.54984227.4438648-.9955775 1-.9955775z" fill="#666" fill-rule="evenodd"/></svg>