<svg height="24" viewBox="0 0 24 24" width="24" xmlns="http://www.w3.org/2000/svg"><path d="m13.0046024 3c.5497429 0 1.3179837.32258606 1.707238.71184039l4.5763192 4.57631922c.3931386.39313859.7118404 1.16760135.7118404 1.71431369v8.9889965c0 1.1092806-.8945138 2.0085302-1.9940603 2.0085302h-12.01187942c-1.10128908 0-1.99406028-.8926228-1.99406028-1.9950893v-14.00982141c0-1.10185739.88743329-1.99508929 1.99961498-1.99508929zm0 1h-7.00498742c-.55709576 0-.99961498.44271433-.99961498.99508929v14.00982141c0 .5500396.44491393.9950893.99406028.9950893h12.01187942c.5463747 0 .9940603-.4506622.9940603-1.0085302v-8.9889965c0-.28393445-.2150684-.8033281-.4189472-1.00720691l-4.5763192-4.57631922c-.2038461-.20384606-.718603-.41894717-1.0001312-.41894717zm-1.5046024 4c.2761424 0 .5.21637201.5.49209595v6.14827645l1.7462789-1.7799092c.1933927-.1971171.5125222-.1945584.7001689-.0069117.1932998.1932999.1910058.5089949-.0027774.7027781l-2.5908927 2.5908927c-.1948337.1948337-.5117783.1937771-.7055687-.0000133l-2.59099083-2.5909908c-.19484111-.1948411-.19043735-.5151448-.00279066-.7027915.19329987-.1932998.50465175-.1923708.70018565.0069286l1.74638684 1.7800176v-6.14827695c0-.27177709.2319336-.49209595.5-.49209595z" fill="#666" fill-rule="evenodd"/></svg>