<svg height="24" viewBox="0 0 24 24" width="24" xmlns="http://www.w3.org/2000/svg"><path d="m11.7259218 5.54588137c-.4881171-.34391207-1.0834332-.54588137-1.7259218-.54588137-1.65685425 0-3 1.34314575-3 3 0 1.02947485.5215457 1.96853646 1.3698342 2.5190079l.6301658.4089272v1.0240018l-.79002171.3290552c-1.93395773.8055207-3.20997829 2.7024791-3.20997829 4.8180274v.9009805h-1v-.9009805c0-2.5479714 1.54557359-4.7915398 3.82548288-5.7411543-1.09870406-.7129711-1.82548288-1.95054399-1.82548288-3.3578652 0-2.209139 1.790861-4 4-4 1.0907982 0 2.0796182.43662103 2.8012245 1.1446278-.3770758.09278571-.7373238.22835063-1.0753027.40125357zm-2.7259218 14.45411863h-1v-.9009805c0-2.5479714 1.54557359-4.7915398 3.8254829-5.7411543-1.0987041-.7129711-1.8254829-1.950544-1.8254829-3.3578652 0-2.209139 1.790861-4 4-4s4 1.790861 4 4c0 1.4073212-.7267788 2.6448941-1.8254829 3.3578652 2.2799093.9496145 3.8254829 3.1931829 3.8254829 5.7411543v.9009805h-1v-.9009805c0-2.1155483-1.2760206-4.0125067-3.2099783-4.8180274l-.7900217-.3290552v-1.0240018l.6301658-.4089272c.8482885-.5504714 1.3698342-1.489533 1.3698342-2.5190079 0-1.65685425-1.3431458-3-3-3s-3 1.34314575-3 3c0 1.0294749.5215457 1.9685365 1.3698342 2.5190079l.6301658.4089272v1.0240018l-.7900217.3290552c-1.9339577.8055207-3.2099783 2.7024791-3.2099783 4.8180274z" fill="#666" fill-rule="evenodd"/></svg>