<?xml version="1.0" encoding="UTF-8"?>
<svg width="24px" height="24px" viewBox="0 0 24 24" version="1.1" xmlns="http://www.w3.org/2000/svg" xmlns:xlink="http://www.w3.org/1999/xlink">
    <!-- Generator: Sketch 63.1 (92452) - https://sketch.com -->
    <title>icon-icon / email</title>
    <desc>Created with Sketch.</desc>
    <g id="icon-/-email" stroke="none" stroke-width="1" fill="none" fill-rule="evenodd">
        <path d="M19.0049107,5 C20.1067681,5 21,5.89706013 21,7.00585866 L21,16.9941413 C21,18.1019465 20.1073772,19 19.0049107,19 L4.99508929,19 C3.8932319,19 3,18.1029399 3,16.9941413 L3,7.00585866 C3,5.89805351 3.8926228,5 4.99508929,5 L19.0049107,5 Z M19.0049107,6 L4.99508929,6 C4.44637411,6 4,6.44887827 4,7.00585866 L4,16.9941413 C4,17.5514374 4.44630695,18 4.99508929,18 L19.0049107,18 C19.5536259,18 20,17.5511217 20,16.9941413 L20,7.00585866 C20,6.44856259 19.553693,6 19.0049107,6 Z M19,8.55749512 L19,10 L12,14 L5,10 L5,8.55749512 L12,12.5574951 L19,8.55749512 Z" id="email" fill="#666666"></path>
    </g>
</svg>