<svg height="24" viewBox="0 0 24 24" width="24" xmlns="http://www.w3.org/2000/svg"><path d="m9.76384967 4.41421356.83301653-.8330165c.7749294-.77492941 2.0313382-.77492941 2.8062676 0l.8330165.8330165c.3750728.37507276.8837806.58578644 1.4142136.58578644h1.3496361c1.1045695 0 2 .8954305 2 2v1.34963611c0 .53043298.2107137 1.03914081.5857864 1.41421356l.8330165.83301653c.7749295.7749294.7749295 2.0313382 0 2.8062676l-.8330165.8330165c-.3750727.3750728-.5857864.8837806-.5857864 1.4142136v1.3496361c0 1.1045695-.8954305 2-2 2h-1.3496361c-.530433 0-1.0391408.2107137-1.4142136.5857864l-.8330165.8330165c-.7749294.7749295-2.0313382.7749295-2.8062676 0l-.83301653-.8330165c-.37507275-.3750727-.88378058-.5857864-1.41421356-.5857864h-1.34963611c-1.1045695 0-2-.8954305-2-2v-1.3496361c0-.530433-.21071368-1.0391408-.58578644-1.4142136l-.8330165-.8330165c-.77492941-.7749294-.77492941-2.0313382 0-2.8062676l.8330165-.83301653c.37507276-.37507275.58578644-.88378058.58578644-1.41421356v-1.34963611c0-1.1045695.8954305-2 2-2h1.34963611c.53043298 0 1.03914081-.21071368 1.41421356-.58578644zm-1.41421356 1.58578644h-1.34963611c-.55228475 0-1 .44771525-1 1v1.34963611c0 .79564947-.31607052 1.55871121-.87867966 2.12132039l-.8330165.8330165c-.38440512.3844051-.38440512 1.0076489 0 1.392054l.8330165.8330165c.56260914.5626092.87867966 1.3256709.87867966 2.1213204v1.3496361c0 .5522847.44771525 1 1 1h1.34963611c.79564947 0 1.55871121.3160705 2.12132039.8786797l.8330165.8330165c.3844051.3844051 1.0076489.3844051 1.392054 0l.8330165-.8330165c.5626092-.5626092 1.3256709-.8786797 2.1213204-.8786797h1.3496361c.5522847 0 1-.4477153 1-1v-1.3496361c0-.7956495.3160705-1.5587112.8786797-2.1213204l.8330165-.8330165c.3844051-.3844051.3844051-1.0076489 0-1.392054l-.8330165-.8330165c-.5626092-.56260918-.8786797-1.32567092-.8786797-2.12132039v-1.34963611c0-.55228475-.4477153-1-1-1h-1.3496361c-.7956495 0-1.5587112-.31607052-2.1213204-.87867966l-.8330165-.8330165c-.3844051-.38440512-1.0076489-.38440512-1.392054 0l-.8330165.8330165c-.56260918.56260914-1.32567092.87867966-2.12132039.87867966zm3.58698939 11.4960218c-.0208122.002155-.0419922.0030286-.0634576.002542-.9876644-.0223875-1.93408566-.3063547-2.75885123-.8155622-.23496767-.1450683-.30784554-.4531483-.16277726-.688116.14506827-.2349677.45314827-.3078455.68811595-.1627773.67447084.4164161 1.44758574.6483839 2.25617384.6667123.0175953.0003988.0349576.0017019.0520437.0038639.0171336-.0017748.0345241-.0026845.0521271-.0026845 2.4852814 0 4.5-2.0147186 4.5-4.5 0-1.0488897-.3593547-2.04134635-1.0074477-2.83787157-.1742817-.21419731-.1419238-.5291218.0722736-.70340353.2141973-.17428173.5291218-.14192375.7034035.07227357.7919032.97327203 1.2317706 2.18808683 1.2317706 3.46900153 0 3.0375661-2.4624339 5.5-5.5 5.5-.0214677 0-.0426194-.0013529-.0633745-.0039782zm1.579751-10.78419583c.2654788.07599731.419084.35281842.3430867.61829728-.0759973.26547885-.3528185.419084-.6182973.3430867-.3756012-.10752146-.7658624-.16587951-1.1556882-.17249193-2.55878074-.00064534-4.5854777 2.00216524-4.5854777 4.49928198 0 .6269156.12797645 1.23496.37274865 1.7964426.11035133.2531347-.0053975.5477984-.25853224.6581497-.25313473.1103514-.54779841-.0053975-.65814974-.2585322-.29947131-.6869568-.45606667-1.430976-.45606667-2.1960601 0-3.05211432 2.47714695-5.50006595 5.5939962-5.49921198.4857618.00815502.962896.0795037 1.4223803.21103795zm-1.9766658 6.41091303 2.69835-2.9465532c.1788432-.2104037.4943901-.23598859.7047939-.0571454.2104037.1788432.2359886.4943901.0571454.7047939l-3.0163768 3.3427739c-.1803909.1999106-.4866955.2210637-.6928541.0478478l-1.9309535-1.6224005c-.21213845-.176782-.24080048-.4920644-.06401844-.7042028.17678204-.2121385.49206439-.2408005.70420284-.0640184z" fill="#666" fill-rule="evenodd"/></svg>