<svg height="24" viewBox="0 0 24 24" width="24" xmlns="http://www.w3.org/2000/svg"><path d="m12 20c4.418278 0 8-3.581722 8-8s-3.581722-8-8-8-8 3.581722-8 8 3.581722 8 8 8zm0 1c-4.97056275 0-9-4.0294373-9-9 0-4.97056275 4.02943725-9 9-9 4.9705627 0 9 4.02943725 9 9 0 4.9705627-4.0294373 9-9 9zm0-2.5c-.2761424 0-.5-.2238576-.5-.5s.2238576-.5.5-.5c2.969509 0 5.400504-2.3575119 5.497023-5.3171484.0090007-.2759957.2400359-.4924379.5160315-.4834372.2759957.0090008.4924378.2400359.4834371.5160316-.114093 3.4985237-2.9869632 6.284554-6.4964916 6.284554zm-.2909066-12.99359748c.2758743-.01216621.5093772.20161139.5215434.47748563.0121662.27587423-.2016114.50937715-.4774856.52154336-2.93195737.12930094-5.2531512 2.54886451-5.2531512 5.49456849 0 .2761424-.22385763.5-.5.5s-.5-.2238576-.5-.5c0-3.48142406 2.74307146-6.34074398 6.2090934-6.49359748zm1.1378414 8.04763908-1.2004882-1.2004882c-.1952621-.1952622-.1952621-.5118446 0-.7071068.1952622-.1952621.5118446-.1952621.7071068 0l1.2004882 1.2004882 1.6006509-4.00162733-4.5067036 1.80268143-1.80268143 4.5067036zm4.1028127-6.50378907-2.6692597 6.67314927c-.1016411.2541026-.3029834.4554449-.557086.557086l-6.67314927 2.6692597 2.66925969-6.6731493c.10164107-.2541026.30298338-.45544491.55708598-.55708598z" fill="#666" fill-rule="evenodd"/></svg>