<?xml version="1.0" encoding="UTF-8"?>
<svg width="24px" height="24px" viewBox="0 0 24 24" version="1.1" xmlns="http://www.w3.org/2000/svg" xmlns:xlink="http://www.w3.org/1999/xlink">
    <!-- Generator: Sketch 63.1 (92452) - https://sketch.com -->
    <title>icon-icon / explore</title>
    <desc>Created with Sketch.</desc>
    <defs>
        <path d="M12,20 C16.418278,20 20,16.418278 20,12 C20,7.581722 16.418278,4 12,4 C7.581722,4 4,7.581722 4,12 C4,16.418278 7.581722,20 12,20 Z M12,21 C7.02943725,21 3,16.9705627 3,12 C3,7.02943725 7.02943725,3 12,3 C16.9705627,3 21,7.02943725 21,12 C21,16.9705627 16.9705627,21 12,21 Z M12,18.5 C11.7238576,18.5 11.5,18.2761424 11.5,18 C11.5,17.7238576 11.7238576,17.5 12,17.5 C14.969509,17.5 17.400504,15.1424881 17.497023,12.1828516 C17.5060237,11.9068559 17.7370589,11.6904137 18.0130545,11.6994144 C18.2890502,11.7084152 18.5054923,11.9394503 18.4964916,12.215446 C18.3823986,15.7139697 15.5095284,18.5 12,18.5 Z M11.7090934,5.50640252 C11.9849677,5.49423631 12.2184706,5.70801391 12.2306368,5.98388815 C12.242803,6.25976238 12.0290254,6.4932653 11.7531512,6.50543151 C8.82119383,6.63473245 6.5,9.05429602 6.5,12 C6.5,12.2761424 6.27614237,12.5 6,12.5 C5.72385763,12.5 5.5,12.2761424 5.5,12 C5.5,8.51857594 8.24307146,5.65925602 11.7090934,5.50640252 Z M12.8469348,13.5540416 L11.6464466,12.3535534 C11.4511845,12.1582912 11.4511845,11.8417088 11.6464466,11.6464466 C11.8417088,11.4511845 12.1582912,11.4511845 12.3535534,11.6464466 L13.5540416,12.8469348 L15.1546925,8.84530747 L10.6479889,10.6479889 L8.84530747,15.1546925 L12.8469348,13.5540416 L12.8469348,13.5540416 Z M16.9497475,7.05025253 L14.2804878,13.7234018 C14.1788467,13.9775044 13.9775044,14.1788467 13.7234018,14.2804878 L7.05025253,16.9497475 L9.71951222,10.2765982 C9.82115329,10.0224956 10.0224956,9.82115329 10.2765982,9.71951222 L16.9497475,7.05025253 Z" id="path-1"></path>
    </defs>
    <g id="icon-/-explore" stroke="none" stroke-width="1" fill="none" fill-rule="evenodd">
        <mask id="mask-2" fill="white">
            <use xlink:href="#path-1"></use>
        </mask>
        <use id="explore" fill="#666666" xlink:href="#path-1"></use>
    </g>
</svg>