<svg height="18" width="18" xmlns="http://www.w3.org/2000/svg"><path d="M6 2v1.51a.5.5 0 01-.5.49.492.492 0 01-.5-.49V.49A.5.5 0 015.5 0c.276 0 .5.215.5.49V1h5v1zm7-1h2c1.107 0 2 .895 2 2v12c0 1.107-.895 2-2 2H3c-1.107 0-2-.895-2-2V3c0-1.107.895-2 2-2h1v1H3c-.554 0-1 .446-1 1v3h14V3c0-.554-.446-1-1-1h-2v1.51a.5.5 0 01-.5.49.492.492 0 01-.5-.49V.49a.5.5 0 01.5-.49c.276 0 .5.215.5.49zM2 7v8c0 .554.446 1 1 1h12c.554 0 1-.446 1-1V7zm5 2h1v1H7zm6 0h1v1h-1zm-3 0h1v1h-1zm-6 2h1v1H4zm3 0h1v1H7zm6 0h1v1h-1zm-3 0h1v1h-1zm-6 2h1v1H4zm3 0h1v1H7zm3 0h1v1h-1z" fill="#333" fill-rule="evenodd"/></svg>