<?xml version="1.0" encoding="UTF-8"?>
<svg width="24px" height="24px" viewBox="0 0 24 24" version="1.1" xmlns="http://www.w3.org/2000/svg" xmlns:xlink="http://www.w3.org/1999/xlink">
    <!-- Generator: Sketch 63.1 (92452) - https://sketch.com -->
    <title>icon-icon / institution</title>
    <desc>Created with Sketch.</desc>
    <g id="icon-/-institution" stroke="none" stroke-width="1" fill="none" fill-rule="evenodd">
        <path d="M10,20 L10,18 L14,18 L14,20 L16,20 L16,17 L8,17 L8,20 L10,20 Z M7,10 L5.47367636,10 C5.19753399,10 4.97367636,9.77614237 4.97367636,9.5 C4.97367636,9.36007088 5.03231225,9.22654456 5.13533974,9.13185827 L6.36690687,8 L4,8 L4,20 L7,20 L7,18 L4,18 L4,17 L7,17 L7,16 L8,16 L8,12 L7,12 L7,10 Z M17,10 L17,12 L16,12 L16,16 L17,16 L17,17 L20,17 L20,18 L17,18 L17,20 L20,20 L20,8 L17.6304691,8 L18.8620362,9.13185827 C19.0653553,9.31871643 19.0786995,9.63501756 18.8918413,9.83833662 C18.797155,9.94136412 18.6636287,10 18.5236996,10 L17,10 Z M20,7 C20.5522847,7 21,7.44771525 21,8 L21,21 L3,21 L3,8 C3,7.44771525 3.44771525,7 4,7 L7.45499992,7 L11.6603514,3.13511784 C11.8516501,2.95930681 12.1457258,2.95930681 12.3370246,3.13511784 L16.542376,7 L20,7 Z M16,10 L8,10 L8,11 L16,11 L16,10 Z M14,16 L15,16 L15,12 L14,12 L14,16 Z M13,16 L13,12 L11,12 L11,16 L13,16 Z M10,16 L10,12 L9,12 L9,16 L10,16 Z M18,12 C18.5522847,12 19,12.4477153 19,13 L19,15 L17,15 L17,13 C17,12.4477153 17.4477153,12 18,12 Z M6,12 C6.55228475,12 7,12.4477153 7,13 L7,15 L5,15 L5,13 C5,12.4477153 5.44771525,12 6,12 Z M11.998688,4.18234586 L6.75663197,9 L17.240744,9 L11.998688,4.18234586 Z M12,8 C11.4477153,8 11,7.55228475 11,7 C11,6.44771525 11.4477153,6 12,6 C12.5522847,6 13,6.44771525 13,7 C13,7.55228475 12.5522847,8 12,8 Z M11,19 L11,20 L13,20 L13,19 L11,19 Z" id="institution" fill="#666666"></path>
    </g>
</svg>