<svg height="24" viewBox="0 0 24 24" width="24" xmlns="http://www.w3.org/2000/svg"><path d="m10 20v-2h4v2h2v-3h-8v3zm-3-10h-1.52632364c-.27614237 0-.5-.22385763-.5-.5 0-.13992912.05863589-.27345544.16166338-.36814173l1.23156713-1.13185827h-2.36690687v12h3v-2h-3v-1h3v-1h1v-4h-1zm10 0v2h-1v4h1v1h3v1h-3v2h3v-12h-2.3695309l1.2315671 1.13185827c.2033191.18685816.2166633.50315929.0298051.70647835-.0946863.1030275-.2282126.16166338-.3681417.16166338zm3-3c.5522847 0 1 .44771525 1 1v13h-18v-13c0-.55228475.44771525-1 1-1h3.45499992l4.20535148-3.86488216c.1912987-.17581103.4853744-.17581103.6766732 0l4.2053514 3.86488216zm-4 3h-8v1h8zm-2 6h1v-4h-1zm-1 0v-4h-2v4zm-3 0v-4h-1v4zm8-4c.5522847 0 1 .4477153 1 1v2h-2v-2c0-.5522847.4477153-1 1-1zm-12 0c.55228475 0 1 .4477153 1 1v2h-2v-2c0-.5522847.44771525-1 1-1zm5.998688-7.81765414-5.24205603 4.81765414h10.48411203zm.001312 3.81765414c-.5522847 0-1-.44771525-1-1s.4477153-1 1-1 1 .44771525 1 1-.4477153 1-1 1zm-1 11v1h2v-1z" fill="#666" fill-rule="evenodd"/></svg>