<svg height="24" viewBox="0 0 24 24" width="24" xmlns="http://www.w3.org/2000/svg"><path d="m12.3952133 19.2688008c.7959634-.7770119 1.5920815-1.6299956 2.3328565-2.5295081 1.4020032-1.7024324 2.4323601-3.3624519 2.9354918-4.871847.2228715-.6686145.3364384-1.2932325.3364384-1.8674457 0-3.3137085-2.6862915-6-6-6-3.36356866 0-6 2.60156856-6 6 0 .5742132.11356691 1.1988312.3364384 1.8674457.50313169 1.5093951 1.53348863 3.1694146 2.93549184 4.871847.74077496.8995125 1.53689306 1.7524962 2.33285646 2.5295081.1369448.1336842.2689568.2602648.3952133.3793207.1262565-.1190559.2582685-.2456365.3952133-.3793207zm-.3952133 1.7311992s-7-6-7-11c0-4 3.13400675-7 7-7 3.8659932 0 7 3.13400675 7 7 0 5-7 11-7 11zm0-8c-1.6568542 0-3-1.3431458-3-3 0-1.65685425 1.3431458-3 3-3s3 1.34314575 3 3c0 1.6568542-1.3431458 3-3 3zm0-1c1.1045695 0 2-.8954305 2-2s-.8954305-2-2-2-2 .8954305-2 2 .8954305 2 2 2z" fill="#666" fill-rule="evenodd"/></svg>