<?xml version="1.0" encoding="UTF-8"?>
<svg width="24px" height="24px" viewBox="0 0 24 24" version="1.1" xmlns="http://www.w3.org/2000/svg" xmlns:xlink="http://www.w3.org/1999/xlink">
    <!-- Generator: Sketch 63.1 (92452) - https://sketch.com -->
    <title>icon-icon / newsletter</title>
    <desc>Created with Sketch.</desc>
    <g id="icon-/-newsletter" stroke="none" stroke-width="1" fill="none" fill-rule="evenodd">
        <path d="M12,14.8482489 L14,13.7053918 L14,12 L10,12 L10,13.7053918 L12,14.8482489 Z M9,13.1339632 L9,11 L15,11 L15,13.1339632 L18,11.4196775 L18,5 L6,5 L6,11.4196775 L9,13.1339632 Z M19,7.75 L20.5299989,8.70624934 C20.8223803,8.88898769 21,9.20945761 21,9.55424764 L21,18 C21,19.1045695 20.1045695,20 19,20 L5,20 C3.8954305,20 3,19.1045695 3,18 L3,9.55424764 C3,9.20945761 3.1776197,8.88898769 3.47000106,8.70624934 L5,7.75 L5,5 C5,4.44771525 5.44771525,4 6,4 L18,4 C18.5522847,4 19,4.44771525 19,5 L19,7.75 Z M19,8.92924764 L19,12 L12,16 L5,12 L5,8.92924764 L4,9.55424764 L4,18 C4,18.5522847 4.44771525,19 5,19 L19,19 C19.5522847,19 20,18.5522847 20,18 L20,9.55424764 L19,8.92924764 Z M9,7 L15,7 L15,8 L9,8 L9,7 Z M8,9 L16,9 L16,10 L8,10 L8,9 Z" id="newsletter" fill="#666666"></path>
    </g>
</svg>