<svg height="24" viewBox="0 0 24 24" width="24" xmlns="http://www.w3.org/2000/svg"><path d="m12 4c4.418278 0 8 3.581722 8 8s-3.581722 8-8 8-8-3.581722-8-8 3.581722-8 8-8zm-2.90107518 5.2732337h-1.41865256v7.1712107h1.41865256zm4.55867178.02508949h-2.9924703v7.14612121h2.9106249c.7673039 0 1.4476365-.1483432 2.0410182-.445034s1.0511995-.7152915 1.3734671-1.2558144c.3222677-.540523.4833991-1.1603247.4833991-1.8594238 0-.6854582-.1602789-1.3027023-.4808414-1.8517509-.3205625-.5490485-.7707074-.9753221-1.3504481-1.2788334-.5797408-.30351132-1.2413173-.45526471-1.9847495-.45526471zm-.1892674 1.07933541c.7877654 0 1.4143875.2233674 1.8798852.6701087.4654977.4467414.698243 1.05546.698243 1.8261742 0 .7434322-.2310402 1.3444779-.6931277 1.8031551-.4620874.4586773-1.0750688.6880124-1.8389625.6880124h-1.4681008v-4.9874504zm-5.08652545-3.71099193c-.21825533 0-.410525.08444276-.57681478.25333081-.16628977.16888806-.24943341.36245684-.24943341.58071218 0 .22345188.08314364.41961891.24943341.58850696.16628978.16888806.35855945.25333082.57681478.25333082.233845 0 .43390938-.08314364.60019916-.24943342.16628978-.16628977.24943342-.36375592.24943342-.59240436 0-.233845-.08314364-.43131115-.24943342-.59240437s-.36635416-.24163862-.60019916-.24163862z" fill="#666" fill-rule="evenodd"/></svg>