<?xml version="1.0" encoding="UTF-8"?>
<svg width="24px" height="24px" viewBox="0 0 24 24" version="1.1" xmlns="http://www.w3.org/2000/svg" xmlns:xlink="http://www.w3.org/1999/xlink">
    <!-- Generator: Sketch 63.1 (92452) - https://sketch.com -->
    <title>icon-icon / orcid</title>
    <desc>Created with Sketch.</desc>
    <g id="icon-/-orcid" stroke="none" stroke-width="1" fill="none" fill-rule="evenodd">
        <path d="M12,4 C16.418278,4 20,7.581722 20,12 C20,16.418278 16.418278,20 12,20 C7.581722,20 4,16.418278 4,12 C4,7.581722 7.581722,4 12,4 Z M9.09892482,9.2732337 L7.68027226,9.2732337 L7.68027226,16.4444444 L9.09892482,16.4444444 L9.09892482,9.2732337 Z M13.6575966,9.29832319 L10.6651263,9.29832319 L10.6651263,16.4444444 L13.5757512,16.4444444 C14.3430551,16.4444444 15.0233877,16.2961012 15.6167694,15.9994104 C16.2101511,15.7027196 16.6679689,15.2841189 16.9902365,14.743596 C17.3125042,14.203073 17.4736356,13.5832713 17.4736356,12.8841722 C17.4736356,12.198714 17.3133567,11.5814699 16.9927942,11.0324213 C16.6722317,10.4833728 16.2220868,10.0570992 15.6423461,9.7535879 C15.0626053,9.45007658 14.4010288,9.29832319 13.6575966,9.29832319 L13.6575966,9.29832319 Z M13.4683292,10.3776586 C14.2560946,10.3776586 14.8827167,10.601026 15.3482144,11.0477673 C15.8137121,11.4945087 16.0464574,12.1032273 16.0464574,12.8739415 C16.0464574,13.6173737 15.8154172,14.2184194 15.3533297,14.6770966 C14.8912423,15.1357739 14.2782609,15.365109 13.5143672,15.365109 L13.5143672,15.365109 L12.0462664,15.365109 L12.0462664,10.3776586 Z M8.38180375,6.66666667 C8.16354842,6.66666667 7.97127875,6.75110943 7.80498897,6.91999748 C7.6386992,7.08888554 7.55555556,7.28245432 7.55555556,7.50070966 C7.55555556,7.72416154 7.6386992,7.92032857 7.80498897,8.08921662 C7.97127875,8.25810468 8.16354842,8.34254744 8.38180375,8.34254744 C8.61564875,8.34254744 8.81571313,8.2594038 8.98200291,8.09311402 C9.14829269,7.92682425 9.23143633,7.7293581 9.23143633,7.50070966 C9.23143633,7.26686466 9.14829269,7.06939851 8.98200291,6.90830529 C8.81571313,6.74721207 8.61564875,6.66666667 8.38180375,6.66666667 Z" id="orcid" fill="#666666"></path>
    </g>
</svg>