<?xml version="1.0" encoding="UTF-8"?>
<svg width="24px" height="24px" viewBox="0 0 24 24" version="1.1" xmlns="http://www.w3.org/2000/svg" xmlns:xlink="http://www.w3.org/1999/xlink">
    <!-- Generator: Sketch 63.1 (92452) - https://sketch.com -->
    <title>icon-icon / plus</title>
    <desc>Created with Sketch.</desc>
    <g id="icon-/-plus" stroke="none" stroke-width="1" fill="none" fill-rule="evenodd">
        <path d="M5.00087166,11 L11,11 L11,5.00087166 C11,4.4481055 11.4438648,4 12,4 C12.5522847,4 13,4.44463086 13,5.00087166 L13,11 L18.9991283,11 C19.5518945,11 20,11.4438648 20,12 C20,12.5522847 19.5553691,13 18.9991283,13 L13,13 L13,18.9991283 C13,19.5518945 12.5561352,20 12,20 C11.4477153,20 11,19.5553691 11,18.9991283 L11,13 L5.00087166,13 C4.4481055,13 4,12.5561352 4,12 C4,11.4477153 4.44463086,11 5.00087166,11 Z" id="plus" fill="#666666"></path>
    </g>
</svg>