<svg height="24" viewBox="0 0 24 24" width="24" xmlns="http://www.w3.org/2000/svg"><path d="m5.00087166 11h5.99912834v-5.99912834c0-.55276616.4438648-1.00087166 1-1.00087166.5522847 0 1 .44463086 1 1.00087166v5.99912834h5.9991283c.5527662 0 1.0008717.4438648 1.0008717 1 0 .5522847-.4446309 1-1.0008717 1h-5.9991283v5.9991283c0 .5527662-.4438648 1.0008717-1 1.0008717-.5522847 0-1-.4446309-1-1.0008717v-5.9991283h-5.99912834c-.55276616 0-1.00087166-.4438648-1.00087166-1 0-.5522847.44463086-1 1.00087166-1z" fill="#666" fill-rule="evenodd"/></svg>