<svg height="18" viewBox="0 0 18 18" width="18" xmlns="http://www.w3.org/2000/svg"><path d="m16.7801825 15.7359719c.2883273.2883568.2955181.7637794.0067514 1.0525756-.2803215.2803501-.7599726.2857731-1.052468-.0067521l-3.1032054-3.1035227c-1.2270718.9968374-2.79163915 1.5942541-4.49572642 1.5942541-3.94084665 0-7.13553408-3.1950139-7.13553408-7.13626339 0-3.94124945 3.19468743-7.13626341 7.13553408-7.13626341 3.94084662 0 7.13553412 3.19501396 7.13553412 7.13626341 0 1.70426144-.5973557 3.26898869-1.5940912 4.49618589zm-8.64464842-1.4829113c3.37786852 0 6.11617212-2.7385834 6.11617212-6.11679719 0-3.37821382-2.7383036-6.11679721-6.11617212-6.11679721-3.37786856 0-6.11617207 2.73858339-6.11617207 6.11679721 0 3.37821379 2.73830351 6.11679719 6.11617207 6.11679719z" fill="#666" fill-rule="evenodd"/></svg>