<?xml version="1.0" encoding="UTF-8"?>
<svg width="24px" height="24px" viewBox="0 0 24 24" version="1.1" xmlns="http://www.w3.org/2000/svg" xmlns:xlink="http://www.w3.org/1999/xlink">
    <!-- Generator: Sketch 63.1 (92452) - https://sketch.com -->
    <title>icon-icon / search</title>
    <desc>Created with Sketch.</desc>
    <g id="icon-/-search" stroke="none" stroke-width="1" fill="none" fill-rule="evenodd">
        <path d="M19.4804498,18.4545959 C19.7633006,18.7374466 19.7703548,19.2037913 19.487073,19.487073 C19.212076,19.76207 18.7415355,19.7673895 18.4545959,19.4804498 L15.4103335,16.4361874 C14.206569,17.4139907 12.6717194,18 11,18 C7.13400675,18 4,14.8659932 4,11 C4,7.13400675 7.13400675,4 11,4 C14.8659932,4 18,7.13400675 18,11 C18,12.6717194 17.4139907,14.206569 16.4361874,15.4103335 L19.4804498,18.4545959 Z M11,17 C14.3137085,17 17,14.3137085 17,11 C17,7.6862915 14.3137085,5 11,5 C7.6862915,5 5,7.6862915 5,11 C5,14.3137085 7.6862915,17 11,17 Z" id="search" fill="#666666"></path>
    </g>
</svg>