<svg height="24" viewBox="0 0 24 24" width="24" xmlns="http://www.w3.org/2000/svg"><path d="m19.4804498 18.4545959c.2828508.2828507.289905.7491954.0066232 1.0324771-.274997.274997-.7455375.2803165-1.0324771-.0066232l-3.0442624-3.0442624c-1.2037645.9778033-2.7386141 1.5638126-4.4103335 1.5638126-3.86599325 0-7-3.1340068-7-7 0-3.86599325 3.13400675-7 7-7 3.8659932 0 7 3.13400675 7 7 0 1.6717194-.5860093 3.206569-1.5638126 4.4103335zm-8.4804498-1.4545959c3.3137085 0 6-2.6862915 6-6s-2.6862915-6-6-6-6 2.6862915-6 6 2.6862915 6 6 6z" fill="#666" fill-rule="evenodd"/></svg>