<?xml version="1.0" encoding="UTF-8"?>
<svg width="24px" height="24px" viewBox="0 0 24 24" version="1.1" xmlns="http://www.w3.org/2000/svg" xmlns:xlink="http://www.w3.org/1999/xlink">
    <!-- Generator: Sketch 63.1 (92452) - https://sketch.com -->
    <title>icon-icon-social-facebook</title>
    <desc>Created with Sketch.</desc>
    <defs>
        <path d="M6.00368507,20 C4.89708036,20 4,19.1054862 4,18.0059397 L4,5.99406028 C4,4.8927712 4.89451376,4 5.99406028,4 L18.0059397,4 C19.1072288,4 20,4.89451376 20,5.99406028 L20,18.0059397 C20,19.1072288 19.11321,20 17.9967816,20 L15.0397684,20 L15.0397684,13.8039182 L17.1195071,13.8039182 L17.4309184,11.3891952 L15.0397684,11.3891952 L15.0397684,9.84754713 C15.0397684,9.1484291 15.2339039,8.67200323 16.2364299,8.67200323 L17.5151038,8.67144448 L17.5151038,6.51169685 L17.2811561,6.48677597 C16.9370327,6.4554264 16.3311408,6.41652342 15.6518507,6.41652342 C13.8082781,6.41652342 12.5461184,7.54184208 12.5461184,9.60840295 L12.5461184,11.3891952 L10.4610406,11.3891952 L10.4610406,13.8039182 L12.5461184,13.8039182 L12.5461184,20 L6.00368507,20 Z" id="path-1"></path>
    </defs>
    <g id="icon-social-facebook" stroke="none" stroke-width="1" fill="none" fill-rule="evenodd">
        <mask id="mask-2" fill="white">
            <use xlink:href="#path-1"></use>
        </mask>
        <use id="social-facebook" fill="#666666" xlink:href="#path-1"></use>
    </g>
</svg>