<?xml version="1.0" encoding="UTF-8"?>
<svg width="24px" height="24px" viewBox="0 0 24 24" version="1.1" xmlns="http://www.w3.org/2000/svg" xmlns:xlink="http://www.w3.org/1999/xlink">
    <!-- Generator: Sketch 63.1 (92452) - https://sketch.com -->
    <title>icon-icon / subject-medicine</title>
    <desc>Created with Sketch.</desc>
    <g id="icon-/-subject-medicine" stroke="none" stroke-width="1" fill="none" fill-rule="evenodd">
        <path d="M15.5,11 L9,11 C7.34314575,11 6,12.3431458 6,14 L6,15 C6,16.6568542 7.34314575,18 9,18 L10,18 L10,16 L9.5,16 C8.67157288,16 8,15.3284271 8,14.5 C8,13.6715729 8.67157288,13 9.5,13 L11,13 L13,13 L14,13 L16,13 C17.6568542,13 19,11.6568542 19,10 L19,9 C19,7.34314575 17.6568542,6 16,6 L14,6 L14,8 L15.5,8 C16.3284271,8 17,8.67157288 17,9.5 C17,10.3284271 16.3284271,11 15.5,11 Z M10,10 L10,9 L6.5,9 C5.11928813,9 4,7.88071187 4,6.5 C4,5.11928813 5.11928813,4 6.5,4 L7.52786405,4 C7.99359933,4 8.45293853,4.10843528 8.86950483,4.31671843 L10.0033291,4.88363055 C10.0635927,3.83321914 10.934492,3 12,3 C13.1045695,3 14,3.8954305 14,5 L16,5 C18.209139,5 20,6.790861 20,9 L20,10 C20,12.209139 18.209139,14 16,14 L14,14 L14,15 L16,15 C17.1045695,15 18,15.8954305 18,17 C18,18.1045695 17.1045695,19 16,19 L14,19 C14,20.1045695 13.1045695,21 12,21 C10.8954305,21 10,20.1045695 10,19 L9,19 C6.790861,19 5,17.209139 5,15 L5,14 C5,11.790861 6.790861,10 9,10 L10,10 Z M10,8 L10,5.94347309 C9.85435754,5.90809161 9.71266607,5.85633303 9.57770876,5.78885438 L8.42229124,5.21114562 C8.14458037,5.07229018 7.83835424,5 7.52786405,5 L6.5,5 C5.67157288,5 5,5.67157288 5,6.5 C5,7.32842712 5.67157288,8 6.5,8 L10,8 Z M14,9 L14,10 L15.5,10 C15.7761424,10 16,9.77614237 16,9.5 C16,9.22385763 15.7761424,9 15.5,9 L14,9 L14,9 Z M13,10 L13,5 C13,4.44771525 12.5522847,4 12,4 C11.4477153,4 11,4.44771525 11,5 L11,10 L13,10 Z M11,14 L11,19 C11,19.5522847 11.4477153,20 12,20 C12.5522847,20 13,19.5522847 13,19 L13,14 L11,14 L11,14 Z M14,16 L14,18 L16,18 C16.5522847,18 17,17.5522847 17,17 C17,16.4477153 16.5522847,16 16,16 L14,16 Z M10,15 L10,14 L9.5,14 C9.22385763,14 9,14.2238576 9,14.5 C9,14.7761424 9.22385763,15 9.5,15 L10,15 L10,15 Z M6.5,6 L7.5,6 C7.77614237,6 8,6.22385763 8,6.5 C8,6.77614237 7.77614237,7 7.5,7 L6.5,7 C6.22385763,7 6,6.77614237 6,6.5 C6,6.22385763 6.22385763,6 6.5,6 Z" id="subject-medicine" fill="#666666"></path>
    </g>
</svg>