<?xml version="1.0" encoding="UTF-8"?>
<svg width="24px" height="24px" viewBox="0 0 24 24" version="1.1" xmlns="http://www.w3.org/2000/svg" xmlns:xlink="http://www.w3.org/1999/xlink">
    <!-- Generator: Sketch 63.1 (92452) - https://sketch.com -->
    <title>icon-icon / table</title>
    <desc>Created with Sketch.</desc>
    <g id="icon-/-table" stroke="none" stroke-width="1" fill="none" fill-rule="evenodd">
        <path d="M20.0049107,5 C21.1067681,5 22,5.89706013 22,7.00585866 L22,16.9941413 C22,18.1019465 21.1073772,19 20.0049107,19 L3.99508929,19 C2.8932319,19 2,18.1029399 2,16.9941413 L2,7.00585866 C2,5.89805351 2.8926228,5 3.99508929,5 L20.0049107,5 Z M8,10 L3,10 L3,16.9941413 C3,17.5514374 3.44630695,18 3.99508929,18 L8,18 L8,10 Z M15,10 L9,10 L9,18 L15,18 L15,10 Z M21,10 L16,10 L16,18 L20.0049107,18 C20.5536259,18 21,17.5511217 21,16.9941413 L21,10 Z M6.5,15 C6.77614237,15 7,15.2238576 7,15.5 C7,15.7761424 6.77614237,16 6.5,16 L4.5,16 C4.22385763,16 4,15.7761424 4,15.5 C4,15.2238576 4.22385763,15 4.5,15 L6.5,15 Z M19.5,15 C19.7761424,15 20,15.2238576 20,15.5 C20,15.7761424 19.7761424,16 19.5,16 L17.5,16 C17.2238576,16 17,15.7761424 17,15.5 C17,15.2238576 17.2238576,15 17.5,15 L19.5,15 Z M13.5,15 C13.7761424,15 14,15.2238576 14,15.5 C14,15.7761424 13.7761424,16 13.5,16 L10.5,16 C10.2238576,16 10,15.7761424 10,15.5 C10,15.2238576 10.2238576,15 10.5,15 L13.5,15 Z M6.5,13 C6.77614237,13 7,13.2238576 7,13.5 C7,13.7761424 6.77614237,14 6.5,14 L4.5,14 C4.22385763,14 4,13.7761424 4,13.5 C4,13.2238576 4.22385763,13 4.5,13 L6.5,13 Z M19.5,13 C19.7761424,13 20,13.2238576 20,13.5 C20,13.7761424 19.7761424,14 19.5,14 L17.5,14 C17.2238576,14 17,13.7761424 17,13.5 C17,13.2238576 17.2238576,13 17.5,13 L19.5,13 Z M13.5,13 C13.7761424,13 14,13.2238576 14,13.5 C14,13.7761424 13.7761424,14 13.5,14 L10.5,14 C10.2238576,14 10,13.7761424 10,13.5 C10,13.2238576 10.2238576,13 10.5,13 L13.5,13 Z M6.5,11 C6.77614237,11 7,11.2238576 7,11.5 C7,11.7761424 6.77614237,12 6.5,12 L4.5,12 C4.22385763,12 4,11.7761424 4,11.5 C4,11.2238576 4.22385763,11 4.5,11 L6.5,11 Z M19.5,11 C19.7761424,11 20,11.2238576 20,11.5 C20,11.7761424 19.7761424,12 19.5,12 L17.5,12 C17.2238576,12 17,11.7761424 17,11.5 C17,11.2238576 17.2238576,11 17.5,11 L19.5,11 Z M13.5,11 C13.7761424,11 14,11.2238576 14,11.5 C14,11.7761424 13.7761424,12 13.5,12 L10.5,12 C10.2238576,12 10,11.7761424 10,11.5 C10,11.2238576 10.2238576,11 10.5,11 L13.5,11 Z M8,6 L3.99508929,6 C3.44637411,6 3,6.44887827 3,7.00585866 L3,9 L8,9 L8,6 Z M15,6 L9,6 L9,9 L15,9 L15,6 Z M20.0049107,6 L16,6 L16,9 L21,9 L21,7.00585866 C21,6.44856259 20.553693,6 20.0049107,6 Z" id="table" fill="#666666"></path>
    </g>
</svg>