<svg height="24" viewBox="0 0 24 24" width="24" xmlns="http://www.w3.org/2000/svg"><path d="m20.0049107 5c1.1018574 0 1.9950893.89706013 1.9950893 2.00585866v9.98828264c0 1.1078052-.8926228 2.0058587-1.9950893 2.0058587h-16.00982141c-1.10185739 0-1.99508929-.8970601-1.99508929-2.0058587v-9.98828264c0-1.10780515.8926228-2.00585866 1.99508929-2.00585866zm-12.0049107 5h-5v6.9941413c0 .5572961.44630695 1.0058587.99508929 1.0058587h4.00491071zm7 0h-6v8h6zm6 0h-5v8h4.0049107c.5487152 0 .9950893-.4488783.9950893-1.0058587zm-14.5 5c.27614237 0 .5.2238576.5.5s-.22385763.5-.5.5h-2c-.27614237 0-.5-.2238576-.5-.5s.22385763-.5.5-.5zm13 0c.2761424 0 .5.2238576.5.5s-.2238576.5-.5.5h-2c-.2761424 0-.5-.2238576-.5-.5s.2238576-.5.5-.5zm-6 0c.2761424 0 .5.2238576.5.5s-.2238576.5-.5.5h-3c-.2761424 0-.5-.2238576-.5-.5s.2238576-.5.5-.5zm-7-2c.27614237 0 .5.2238576.5.5s-.22385763.5-.5.5h-2c-.27614237 0-.5-.2238576-.5-.5s.22385763-.5.5-.5zm13 0c.2761424 0 .5.2238576.5.5s-.2238576.5-.5.5h-2c-.2761424 0-.5-.2238576-.5-.5s.2238576-.5.5-.5zm-6 0c.2761424 0 .5.2238576.5.5s-.2238576.5-.5.5h-3c-.2761424 0-.5-.2238576-.5-.5s.2238576-.5.5-.5zm-7-2c.27614237 0 .5.2238576.5.5s-.22385763.5-.5.5h-2c-.27614237 0-.5-.2238576-.5-.5s.22385763-.5.5-.5zm13 0c.2761424 0 .5.2238576.5.5s-.2238576.5-.5.5h-2c-.2761424 0-.5-.2238576-.5-.5s.2238576-.5.5-.5zm-6 0c.2761424 0 .5.2238576.5.5s-.2238576.5-.5.5h-3c-.2761424 0-.5-.2238576-.5-.5s.2238576-.5.5-.5zm-5.5-5h-4.00491071c-.54871518 0-.99508929.44887827-.99508929 1.00585866v1.99414134h5zm7 0h-6v3h6zm5.0049107 0h-4.0049107v3h5v-1.99414134c0-.55729607-.446307-1.00585866-.9950893-1.00585866z" fill="#666" fill-rule="evenodd"/></svg>