<?xml version="1.0" encoding="UTF-8"?>
<svg width="24px" height="24px" viewBox="0 0 24 24" version="1.1" xmlns="http://www.w3.org/2000/svg" xmlns:xlink="http://www.w3.org/1999/xlink">
    <!-- Generator: Sketch 63.1 (92452) - https://sketch.com -->
    <title>icon-icon / tick-circle</title>
    <desc>Created with Sketch.</desc>
    <g id="icon-/-tick-circle" stroke="none" stroke-width="1" fill="none" fill-rule="evenodd">
        <path d="M12,2 C17.5228475,2 22,6.4771525 22,12 C22,17.5228475 17.5228475,22 12,22 C6.4771525,22 2,17.5228475 2,12 C2,6.4771525 6.4771525,2 12,2 Z M12,3 C7.02943725,3 3,7.02943725 3,12 C3,16.9705627 7.02943725,21 12,21 C16.9705627,21 21,16.9705627 21,12 C21,7.02943725 16.9705627,3 12,3 Z M16.2199868,8.36606669 C16.5813382,7.92890443 17.2188986,7.87574592 17.6440178,8.24733384 C18.069137,8.61892176 18.1208311,9.27454333 17.7594798,9.71170559 L17.7594798,9.71170559 L11.6661448,16.6556843 C11.3038503,17.0685559 10.6763577,17.111916 10.2607184,16.7528 L10.2607184,16.7528 L6.36352775,13.3855929 C5.93490354,13.0182875 5.87699211,12.3632157 6.23417895,11.9224492 C6.59136579,11.4816827 7.22839151,11.4221307 7.65701572,11.7894361 L7.65701572,11.7894361 L10.7679901,14.4882102 Z" id="tick-circle" fill="#666666"></path>
    </g>
</svg>