<?xml version="1.0" encoding="UTF-8"?>
<svg width="24px" height="24px" viewBox="0 0 24 24" version="1.1" xmlns="http://www.w3.org/2000/svg" xmlns:xlink="http://www.w3.org/1999/xlink">
    <!-- Generator: Sketch 63.1 (92452) - https://sketch.com -->
    <title>icon-icon / update</title>
    <desc>Created with Sketch.</desc>
    <g id="icon-/-update" stroke="none" stroke-width="1" fill="none" fill-rule="evenodd">
        <path d="M4,16 L4,17 C4,17.5522847 4.44771525,18 5,18 L19,18 C19.5522847,18 20,17.5522847 20,17 L20,16 L19,16 L19,6 L5,6 L5,16 L4,16 Z M20,15 L21,15 L21,17 C21,18.1045695 20.1045695,19 19,19 L5,19 C3.8954305,19 3,18.1045695 3,17 L3,15 L4,15 L4,6 C4,5.44771525 4.44771525,5 5,5 L19,5 C19.5522847,5 20,5.44771525 20,6 L20,15 Z M19,15 L19,16 L14.4142136,16 L13.4142136,17 L10.5857864,17 L9.58578644,16 L5,16 L5,15 L10,15 L11,16 L13,16 L14,15 L19,15 Z M6,7 L18,7 L18,14 L6,14 L6,7 Z M7,8 L7,13 L17,13 L17,8 L7,8 Z M8,9 L12,9 L12,10 L8,10 L8,9 Z M8,11 L12,11 L12,12 L8,12 L8,11 Z" id="update" fill="#666666"></path>
    </g>
</svg>