<svg height="24" viewBox="0 0 24 24" width="24" xmlns="http://www.w3.org/2000/svg"><path d="m19.0049107 5c1.1018574 0 1.9950893.89706013 1.9950893 2.00585866v9.98828264c0 1.1078052-.8926228 2.0058587-1.9950893 2.0058587h-14.00982141c-1.10185739 0-1.99508929-.8970601-1.99508929-2.0058587v-9.98828264c0-1.10780515.8926228-2.00585866 1.99508929-2.00585866zm0 1h-14.00982141c-.54871518 0-.99508929.44887827-.99508929 1.00585866v9.98828264c0 .5572961.44630695 1.0058587.99508929 1.0058587h14.00982141c.5487152 0 .9950893-.4488783.9950893-1.0058587v-9.98828264c0-.55729607-.446307-1.00585866-.9950893-1.00585866zm-8.3091292 2.24944486 4.6046046 2.73982244c.9365543.5572666.9290753 1.4652243 0 2.0180408l-4.6046046 2.7398224c-.93655427.5572666-1.6957815.1645632-1.6957815-.8937585v-5.71016863c0-1.05087579.76670616-1.446575 1.6957815-.89375851zm-.6749277.96085624v5.5750128c0 .2995102-.10753746.2442517.1657893.0847713l4.5845228-2.6749726c.3050619-.1779972.3051624-.2165545 0-.3946103l-4.5845228-2.67497259c-.2663075-.15538481-.1657893-.20699944-.1657893.08477139z" fill="#666" fill-rule="evenodd"/></svg>