<svg height="24" viewBox="0 0 24 24" width="24" xmlns="http://www.w3.org/2000/svg"><path d="m12 14.75c.6903559 0 1.25.5596441 1.25 1.25s-.5596441 1.25-1.25 1.25-1.25-.5596441-1.25-1.25.5596441-1.25 1.25-1.25zm.4132005-7.75c.5522847 0 1 .44771525 1 1 0 .02771774-.0011525.05542349-.0034543.08304548l-.3333333 4.00000002c-.043191.5182921-.4764571.9169545-.9965458.9169545h-.1597342c-.5200887 0-.9533548-.3986624-.9965458-.9169545l-.3333333-4.00000002c-.0458648-.55037702.3631232-1.03372649.9135003-1.07959124l.0414868-.00259031zm-.4132005 14c-4.97056275 0-9-4.0294373-9-9 0-4.97056275 4.02943725-9 9-9 4.9705627 0 9 4.02943725 9 9 0 4.9705627-4.0294373 9-9 9zm0-1c4.418278 0 8-3.581722 8-8s-3.581722-8-8-8-8 3.581722-8 8 3.581722 8 8 8z" fill="#666" fill-rule="evenodd"/></svg>