<?xml version="1.0" encoding="utf-8"?>
<!-- Generator: Adobe Illustrator 16.0.4, SVG Export Plug-In . SVG Version: 6.00 Build 0)  -->
<!DOCTYPE svg PUBLIC "-//W3C//DTD SVG 1.1//EN" "http://www.w3.org/Graphics/SVG/1.1/DTD/svg11.dtd">
<svg version="1.1" id="Layer_1" xmlns="http://www.w3.org/2000/svg" xmlns:xlink="http://www.w3.org/1999/xlink" x="0px" y="0px"
	 width="16px" height="16px" viewBox="0 0 16 16" enable-background="new 0 0 16 16" xml:space="preserve">
<path fill="#333333" d="M7.002,15.002c0,0.553,0.447,1,1,1c0.552,0,1-0.447,1-1V3.386l2.482,2.482c0.392,0.393,1.021,0.4,1.403,0.02
	c0.391-0.391,0.392-1.024,0.001-1.416c-0.001,0-0.001-0.001-0.001-0.001L8.71,0.295c-0.39-0.391-1.024-0.391-1.415,0
	c0,0-0.001,0-0.001,0L3.118,4.472c-0.391,0.382-0.398,1.009-0.016,1.4c0.389,0.391,1.022,0.393,1.414,0.003
	C4.518,5.873,4.52,5.871,4.522,5.869l2.48-2.482V15.002z"/>
</svg>
