<?xml version="1.0" encoding="UTF-8"?>
<svg width="24px" height="24px" viewBox="-4 0 24 24" version="1.1" xmlns="http://www.w3.org/2000/svg" xmlns:xlink="http://www.w3.org/1999/xlink">
    <path d="M14.906253,15.3413394 C14.0719603,9.98516251 8.03159195,7.28691178 3.45790264,10.1944055 C3.33091744,10.2750546 3.22520227,10.4122215 3.05440718,10.3938056 C2.98075576,10.3112514 2.99885115,10.2207594 2.99885115,10.1366176 C2.99821623,8.72875181 2.98170815,7.32025096 3.00393056,5.91238514 C3.0413912,3.52942777 4.97505827,1.57225932 7.32968128,1.50558096 C9.75414614,1.43699751 11.7678139,3.22302485 11.9824189,5.62852586 C11.9922602,5.74568925 11.9567044,5.87904596 12.0982929,5.99176413 C12.5246457,6.02161063 12.9754431,6.03812146 13.4344946,5.9752533 C13.5233842,5.67932841 13.4754473,5.39896181 13.4363994,5.12621559 C12.9398873,1.65449595 9.48525499,-0.668768416 6.08046441,0.172966426 C3.4067911,0.834352196 1.53788647,3.17317485 1.51026719,5.92699087 C1.49153687,7.77525134 1.49915598,9.62351182 1.51090211,11.4711373 C1.51344182,11.8200873 1.43344115,12.1068042 1.23978872,12.4027291 C-1.62182268,16.7720664 0.708673136,22.6013421 5.78617622,23.8129831 C6.01951152,23.8685484 6.28078356,23.8364793 6.48681704,24 L8.49286568,24 C8.58429502,23.8923621 8.71667709,23.9133181 8.83477332,23.8914095 C12.7224251,23.1792212 15.5592744,19.5309627 14.906253,15.3413394 L14.906253,15.3413394 Z M7.50310394,22.6666667 C4.12710769,22.6688857 1.37734362,20.0018892 1.36363636,16.7119169 C1.35003131,13.384198 4.07508425,10.685799 7.46896356,10.6666667 C10.8582908,10.6477353 13.6275637,13.3350324 13.6363636,16.6519665 C13.6451216,19.9723898 10.9002347,22.6641277 7.50310394,22.6666667 L7.50310394,22.6666667 Z" id="Shape"></path>
    <path d="M8.18118591,16.6678541 C8.18147222,16.2921114 8.18147222,15.9166523 8.18147222,15.5409097 C8.18147222,15.3999707 8.1806133,15.2598825 8.13079612,15.124048 C8.01885063,14.8172151 7.75602207,14.643381 7.43707761,14.6691867 C7.14017869,14.6935745 6.90913006,14.8895279 6.84786065,15.1921071 C6.8198027,15.3282252 6.82066162,15.4717163 6.82066162,15.6118045 C6.81779856,16.3162157 6.81693965,17.0203432 6.82066162,17.7247544 C6.82180684,17.8804394 6.82381098,18.0400946 6.85988549,18.1901081 C6.92516317,18.4660308 7.15478027,18.64185 7.43822283,18.6642528 C7.72223801,18.6869392 7.97418695,18.5485524 8.09758467,18.2981518 C8.16801585,18.1543771 8.18290374,17.9995428 8.18175852,17.8413055 C8.17889546,17.4502495 8.18118591,17.05891 8.18118591,16.6678541 L8.18118591,16.6678541 Z" id="Path" stroke-width="0.5"></path>
</svg>
